<svg version="1.1" id="Layer_1" xmlns="http://www.w3.org/2000/svg" xmlns:xlink="http://www.w3.org/1999/xlink" x="0px" y="0px"
	 width="100%" viewBox="0 0 1917 893" enable-background="new 0 0 1917 893" xml:space="preserve">
<path fill="#FFFFFF" opacity="1.000000" stroke="none" 
	d="
M1.000000,892.000000 
	C1.000000,626.305298 1.000000,360.610596 1.453632,94.458008 
	C640.604858,94.000069 1279.302368,94.000038 1918.000000,94.000000 
	C1918.000000,359.694702 1918.000000,625.389404 1917.556396,891.539062 
	C1278.408569,891.996033 639.704285,891.998047 1.000000,892.000000 
M244.500000,563.000000 
	C749.787537,563.000000 1255.075073,563.001343 1760.362671,562.988770 
	C1769.036621,562.988586 1767.986084,563.948425 1767.987427,555.173584 
	C1768.006226,437.350922 1768.000122,319.528229 1768.000000,201.705566 
	C1768.000000,200.372360 1767.899170,199.030167 1768.018311,197.707779 
	C1768.274170,194.870026 1767.025635,193.743713 1764.239746,193.979416 
	C1762.750610,194.105438 1761.241943,194.000092 1759.742065,194.000092 
	C1364.444458,194.000015 969.146912,194.000000 573.849304,194.000000 
	C433.861969,194.000000 293.874603,194.016769 153.887329,193.921173 
	C149.571167,193.918228 147.878586,194.684845 147.884659,199.576721 
	C148.032333,318.899078 148.025162,438.221680 147.901840,557.544067 
	C147.897232,562.000488 149.133408,563.126465 153.508759,563.098999 
	C183.504852,562.910461 213.502716,563.000000 244.500000,563.000000 
z"/>
<path fill="#B2955F" opacity="1.000000" stroke="none" 
	d="
M1918.000000,93.546371 
	C1279.302368,94.000038 640.604858,94.000069 1.453632,94.000053 
	C1.000000,63.006004 1.000000,32.012009 1.000000,1.055268 
	C640.000000,1.055268 1279.000000,1.055268 1918.000000,1.055268 
	C1918.000000,31.771269 1918.000000,62.432003 1918.000000,93.546371 
M151.126114,42.834072 
	C148.101974,40.926544 145.694153,41.880482 144.152863,44.751331 
	C142.624344,47.598392 141.922195,50.611439 144.769104,53.286827 
	C146.970963,55.356037 149.168243,56.094746 152.172104,53.384502 
	C152.840027,53.894756 153.507965,54.405014 154.477951,55.146023 
	C154.477951,48.534653 154.477951,42.417717 154.477951,36.300785 
	C154.067856,36.289032 153.657761,36.277279 153.247650,36.265526 
	C153.164841,37.921413 153.221878,39.601696 152.939148,41.222717 
	C152.801636,42.011261 152.029099,42.689049 151.126114,42.834072 
M118.265396,43.605461 
	C117.541672,43.431164 116.817940,43.256870 116.094215,43.082577 
	C116.094215,48.964020 116.094215,54.845463 116.094215,60.726906 
	C116.646118,60.728481 117.198029,60.730057 117.749931,60.731632 
	C117.833679,59.074757 117.780716,57.394260 118.061050,55.771339 
	C118.193695,55.003403 118.964081,54.345627 119.896500,54.232750 
	C123.143333,56.023869 125.468910,55.016964 127.037315,51.841595 
	C128.633392,48.610203 128.753586,45.550396 125.595169,43.148708 
	C123.199905,41.327332 120.859978,41.145988 118.265396,43.605461 
M24.491411,40.987644 
	C23.477278,39.533325 22.463144,38.079002 21.449011,36.624683 
	C21.147552,36.891098 20.846096,37.157513 20.544638,37.423927 
	C20.544638,43.179073 20.544638,48.934223 20.544638,54.689369 
	C20.928984,54.692986 21.313328,54.696606 21.697674,54.700222 
	C21.697674,50.426228 21.697674,46.152237 21.697674,41.878242 
	C21.969902,41.846500 22.242130,41.814762 22.514360,41.783024 
	C24.591665,46.202896 26.668970,50.622768 29.130890,55.860981 
	C31.530281,50.519794 33.499226,46.136814 35.468166,41.753834 
	C35.844368,41.796631 36.220566,41.839428 36.596767,41.882225 
	C36.596767,46.167503 36.596767,50.452782 36.596767,54.738060 
	C36.920898,54.707600 37.245029,54.677139 37.569160,54.646675 
	C37.569160,48.829861 37.569160,43.013046 37.569160,37.196232 
	C37.047695,36.991062 36.526230,36.785896 36.004765,36.580727 
	C33.774582,41.211288 31.544394,45.841846 28.958439,51.211094 
	C27.430927,47.609432 26.166689,44.628536 24.491411,40.987644 
M73.178734,50.400463 
	C68.438354,46.799889 67.756844,39.504181 61.526451,36.743538 
	C61.526451,43.180443 61.526451,48.933632 61.526451,54.686821 
	C61.988140,54.697838 62.449825,54.708858 62.911514,54.719879 
	C62.911514,50.063736 62.911514,45.407589 62.911514,40.365673 
	C68.100426,45.075451 69.309586,51.995640 75.290268,55.299385 
	C75.290268,48.841228 75.290268,43.056152 75.290268,36.033703 
	C74.420715,37.619564 74.136253,37.900307 74.128418,38.188576 
	C74.020187,42.166317 73.949997,46.145092 73.178734,50.400463 
M138.367325,54.639618 
	C141.082855,52.024849 140.757477,43.653942 137.689560,42.460682 
	C134.869019,41.363636 132.217438,41.795116 130.965134,44.462643 
	C133.581039,44.670273 135.721863,44.840195 137.862701,45.010117 
	C137.810822,45.500027 137.758942,45.989937 137.707062,46.479851 
	C136.152908,46.961849 134.345169,47.103149 133.114166,48.019352 
	C131.819977,48.982594 131.077744,50.687450 130.094330,52.068249 
	C131.814301,52.996109 133.469025,54.104240 135.286728,54.762020 
	C136.001587,55.020710 137.080688,54.272858 138.367325,54.639618 
M80.080406,52.249981 
	C83.096863,55.811867 86.741692,56.079731 90.050972,53.201778 
	C92.666870,50.926838 92.716583,47.632607 90.818413,44.606831 
	C88.719482,41.261044 85.735527,41.254276 82.608185,42.838631 
	C78.854851,44.740135 78.099022,47.747662 80.080406,52.249981 
M42.153526,42.732853 
	C41.634537,42.823620 41.115547,42.914383 40.596558,43.005150 
	C41.164082,44.881847 41.456524,46.903126 42.352272,48.607304 
	C44.747471,53.164230 46.665359,57.462547 40.660053,60.831848 
	C48.657894,57.221359 48.322407,48.798702 51.095886,42.262379 
	C49.722538,43.510891 48.838127,45.045525 48.175926,46.670704 
	C47.476734,48.386654 46.989422,50.188938 45.974731,53.276665 
	C44.569969,49.018543 43.619747,46.138233 42.153526,42.732853 
M96.002342,51.215359 
	C97.005157,55.302364 97.005157,55.302364 100.712013,53.946651 
	C96.821411,51.394165 96.849037,45.651798 100.472778,43.106007 
	C99.374138,41.641876 98.276321,40.178860 96.994698,38.470879 
	C96.152885,40.144341 94.659294,41.851540 94.557175,43.638275 
	C94.431587,45.835457 95.466911,48.099003 96.002342,51.215359 
z"/>
<path fill="#B5B995" opacity="1.000000" stroke="none" 
	d="
M1.000000,892.250000 
	C639.704285,891.998047 1278.408569,891.996033 1917.556396,891.997070 
	C1918.000000,892.000000 1918.000000,892.500000 1917.531372,892.749023 
	C1848.043335,893.026917 1779.024048,893.055725 1709.537109,893.057495 
	C1684.770264,893.016785 1660.470703,892.985107 1636.171265,892.992798 
	C1559.445312,893.016968 1482.719360,893.055786 1405.537109,893.056641 
	C1245.830933,893.012390 1086.581299,892.988220 927.331543,892.992920 
	C819.222046,892.996033 711.112549,893.039673 602.540527,893.040344 
	C501.498474,893.010254 400.918884,892.994141 300.339294,893.003906 
	C236.894913,893.010132 173.450546,893.055237 109.537415,893.055603 
	C73.045776,893.018921 37.022888,893.009460 1.000000,893.000000 
	C1.000000,893.000000 1.000000,892.500000 1.000000,892.250000 
z"/>
<path fill="#E5F09D" opacity="1.000000" stroke="none" 
	d="
M603.003052,893.065247 
	C711.112549,893.039673 819.222046,892.996033 927.331543,892.992920 
	C1086.581299,892.988220 1245.830933,893.012390 1405.538818,893.283936 
	C1405.996948,893.543579 1406.000000,894.000000 1406.000000,894.000000 
	C1138.638672,894.000000 871.277283,894.000000 603.458496,893.766296 
	C603.001099,893.532593 603.003052,893.065247 603.003052,893.065247 
z"/>
<path fill="#DFE5B1" opacity="1.000000" stroke="none" 
	d="
M602.540527,893.040344 
	C603.003052,893.065247 603.001099,893.532593 603.000549,893.766296 
	C438.975098,894.000000 274.950195,894.000000 110.464188,893.770752 
	C110.003105,893.541504 110.006165,893.082947 110.006165,893.082886 
	C173.450546,893.055237 236.894913,893.010132 300.339294,893.003906 
	C400.918884,892.994141 501.498474,893.010254 602.540527,893.040344 
z"/>
<path fill="#DFE5B1" opacity="1.000000" stroke="none" 
	d="
M1406.467773,894.000000 
	C1406.000000,894.000000 1405.996948,893.543579 1405.995117,893.316284 
	C1482.719360,893.055786 1559.445312,893.016968 1636.171265,892.992798 
	C1660.470703,892.985107 1684.770264,893.016785 1709.535645,893.286011 
	C1710.001587,893.541504 1710.000000,894.000000 1710.000000,894.000000 
	C1608.978516,894.000000 1507.957153,894.000000 1406.467773,894.000000 
z"/>
<path fill="#E5F09D" opacity="1.000000" stroke="none" 
	d="
M1710.468628,894.000000 
	C1710.000000,894.000000 1710.001587,893.541504 1710.003174,893.312988 
	C1779.024048,893.055725 1848.043335,893.026917 1917.531372,892.999023 
	C1916.503784,893.333313 1915.007935,893.957214 1913.511475,893.958252 
	C1845.986694,894.006470 1778.462036,894.000000 1710.468628,894.000000 
z"/>
<path fill="#E5F09D" opacity="1.000000" stroke="none" 
	d="
M109.537415,893.055664 
	C110.006165,893.082947 110.003105,893.541504 110.001556,893.770752 
	C73.666664,894.000000 37.333332,894.000000 1.000000,893.500000 
	C37.022888,893.009460 73.045776,893.018921 109.537415,893.055664 
z"/>
<path fill="#F8F9FA" opacity="1.000000" stroke="none" 
	d="
M244.000000,563.000000 
	C213.502716,563.000000 183.504852,562.910461 153.508759,563.098999 
	C149.133408,563.126465 147.897232,562.000488 147.901840,557.544067 
	C148.025162,438.221680 148.032333,318.899078 147.884659,199.576721 
	C147.878586,194.684845 149.571167,193.918228 153.887329,193.921173 
	C293.874603,194.016769 433.861969,194.000000 573.849304,194.000000 
	C969.146912,194.000000 1364.444458,194.000015 1759.742065,194.000092 
	C1761.241943,194.000092 1762.750610,194.105438 1764.239746,193.979416 
	C1767.025635,193.743713 1768.274170,194.870026 1768.018311,197.707779 
	C1767.899170,199.030167 1768.000000,200.372360 1768.000000,201.705566 
	C1768.000122,319.528229 1768.006226,437.350922 1767.987427,555.173584 
	C1767.986084,563.948425 1769.036621,562.988586 1760.362671,562.988770 
	C1255.075073,563.001343 749.787537,563.000000 244.000000,563.000000 
M1053.231079,385.688324 
	C1052.578735,384.675293 1051.926392,383.662231 1051.274048,382.649200 
	C1050.948975,382.849304 1050.623779,383.049408 1050.298584,383.249512 
	C1050.298584,390.467804 1050.298584,397.686066 1050.298584,405.658539 
	C1055.100586,403.190247 1051.760620,399.105682 1053.385620,396.324615 
	C1056.146484,398.775787 1059.290527,398.874725 1061.896729,396.187775 
	C1064.733398,393.263336 1064.732422,387.845520 1062.375610,384.876007 
	C1059.921387,381.783783 1056.257568,382.270447 1053.977539,385.974670 
	C1053.977539,385.974670 1054.003174,385.907043 1053.231079,385.688324 
M1269.024414,288.168549 
	C1269.610840,284.223175 1268.242676,281.244415 1265.192261,278.572144 
	C1261.195190,275.070435 1257.743774,270.948090 1253.770508,267.415649 
	C1252.327271,266.132477 1250.075195,265.158386 1248.162964,265.106262 
	C1239.348633,264.865814 1230.523071,265.073517 1221.703369,264.970245 
	C1217.159302,264.917053 1214.961792,266.829132 1214.976440,271.483002 
	C1215.035034,290.123291 1215.011475,308.763947 1214.992676,327.404449 
	C1214.988037,331.967102 1217.277222,334.021149 1221.754883,334.010834 
	C1235.235962,333.979767 1248.717163,334.029999 1262.198120,333.983704 
	C1267.085205,333.966919 1268.949951,331.989807 1268.990234,326.952148 
	C1269.035400,321.293793 1269.004639,315.634796 1269.283325,309.416229 
	C1270.209717,308.599884 1271.136230,307.783539 1272.711060,306.763153 
	C1274.006348,305.787872 1275.726685,305.066895 1276.497681,303.778046 
	C1277.666992,301.823578 1279.427856,298.874115 1278.724854,297.408722 
	C1276.837036,293.473480 1274.801514,288.875000 1269.024414,288.168549 
M1041.000000,464.513672 
	C1041.000000,461.348602 1041.044556,458.182739 1040.990845,455.018585 
	C1040.872192,448.039856 1037.085938,444.033020 1030.222046,444.026154 
	C982.412720,443.978241 934.603455,443.978516 886.794128,444.025665 
	C879.924194,444.032440 876.060425,448.032593 876.020203,455.002411 
	C875.948975,467.329132 875.949707,479.656830 876.019958,491.983582 
	C876.059692,498.962158 879.914856,502.967010 886.780090,502.973877 
	C934.589417,503.021667 982.398682,503.021454 1030.208008,502.974213 
	C1037.077393,502.967438 1040.921997,498.966431 1040.981567,491.995422 
	C1041.057129,483.167175 1041.000000,474.337769 1041.000000,464.513672 
M696.099731,275.030365 
	C695.811584,275.155670 695.271912,275.279175 695.271057,275.406555 
	C695.159363,291.047913 695.073975,306.689484 695.069763,322.331085 
	C695.069580,322.876221 695.898132,323.421570 696.340332,323.966827 
	C696.891907,323.361938 697.783264,322.825378 697.921631,322.137390 
	C698.179321,320.856750 697.999695,319.487946 697.999756,318.155823 
	C698.000122,306.284119 698.000000,294.412384 698.000000,281.773163 
	C709.254395,296.509674 719.939392,310.500580 730.624390,324.491516 
	C731.082825,324.221283 731.541321,323.951050 731.999817,323.680817 
	C731.999817,308.574951 732.034485,293.468811 731.929077,278.363678 
	C731.921265,277.249420 730.904663,276.142181 730.357117,275.031677 
	C729.904785,276.237823 729.070007,277.440643 729.059509,278.650604 
	C728.959839,290.139191 729.009216,301.628967 728.985779,313.118347 
	C728.983459,314.268555 728.783081,315.418396 728.680420,316.506958 
	C717.974915,302.518005 707.454956,288.771484 696.099731,275.030365 
M1025.119995,289.471161 
	C1025.017212,290.821960 1024.914551,292.172760 1024.777344,293.975250 
	C1019.301270,285.519714 1008.730286,287.222198 1003.972900,291.530670 
	C998.804382,296.211487 997.880066,302.390350 997.987610,308.932922 
	C998.101074,315.828613 1001.669189,322.408417 1006.919434,323.830048 
	C1010.095276,324.689972 1013.810120,325.145691 1016.890015,324.319275 
	C1019.863281,323.521545 1022.332336,320.844849 1024.907837,319.072723 
	C1025.374878,324.393646 1025.388184,330.357941 1020.184387,334.120636 
	C1013.883423,338.676666 1006.946289,337.794067 999.574097,333.834015 
	C1000.195129,335.579559 1000.238037,336.795288 1000.844910,337.238312 
	C1007.590942,342.162262 1025.085571,341.442352 1026.645264,329.929596 
	C1028.408936,316.911285 1027.662476,303.550629 1027.886597,290.336823 
	C1027.893677,289.917480 1026.569092,289.475525 1025.119995,289.471161 
M632.949646,311.332184 
	C631.351990,315.427551 629.754395,319.522888 628.156738,323.618225 
	C628.551575,323.941010 628.946472,324.263763 629.341370,324.586517 
	C630.460388,323.625183 632.001709,322.875854 632.612549,321.659332 
	C633.975586,318.944916 635.355225,316.076294 635.839844,313.124695 
	C636.440369,309.466827 638.294495,308.604614 641.518982,308.975098 
	C642.831848,309.125946 644.176758,308.984741 645.506714,309.002777 
	C649.821106,309.061218 655.216309,307.585663 658.145081,309.633301 
	C661.065308,311.675049 661.319763,317.344421 663.148865,321.232361 
	C663.790955,322.597321 665.637024,323.395935 666.933350,324.453125 
	C666.460449,320.022400 665.248535,316.524811 663.967163,313.052856 
	C659.575745,301.154816 655.195435,289.252319 650.688171,277.398193 
	C650.316528,276.420837 649.113525,275.400757 648.115845,275.164337 
	C647.578064,275.036957 646.321289,276.398132 645.958313,277.313507 
	C641.576965,288.361481 637.302124,299.451691 632.949646,311.332184 
M1093.997681,321.401184 
	C1090.651245,312.198761 1087.322388,302.989929 1083.951660,293.796387 
	C1081.961060,288.367096 1080.000732,282.922211 1077.796265,277.579468 
	C1077.351685,276.502106 1075.934570,275.732605 1074.803955,275.120270 
	C1074.606689,275.013489 1073.358643,276.297119 1073.010376,277.114990 
	C1071.562012,280.516998 1070.251465,283.978607 1068.927856,287.432739 
	C1064.309692,299.484802 1059.707031,311.542816 1055.098389,323.598572 
	C1055.648804,323.946564 1056.199097,324.294525 1056.749512,324.642487 
	C1057.837646,323.188782 1059.349976,321.889832 1059.946045,320.256500 
	C1064.045898,309.022552 1063.984131,309.000000 1076.008179,309.000000 
	C1078.170410,309.000000 1080.355835,309.198486 1082.489014,308.949524 
	C1085.118408,308.642639 1086.246094,309.879211 1087.010864,312.153412 
	C1088.187744,315.653076 1089.445557,319.141541 1090.976440,322.494324 
	C1091.332642,323.274384 1092.926514,323.489380 1093.950806,323.964386 
	C1093.979248,323.374969 1094.007812,322.785522 1093.997681,321.401184 
M1103.000000,329.470459 
	C1103.000000,339.347992 1103.000000,339.347992 1106.150879,339.495117 
	C1106.150879,332.805817 1106.150879,326.125458 1106.150879,319.090698 
	C1115.335449,326.984375 1123.632568,327.097290 1129.168945,319.154968 
	C1133.438965,313.029388 1133.655273,306.088196 1132.156372,298.676270 
	C1130.083496,288.425690 1117.435547,284.253357 1109.786621,291.711029 
	C1108.703125,292.767456 1107.624023,293.828339 1106.698242,294.734894 
	C1105.960205,292.390167 1105.386230,290.566559 1104.812256,288.742920 
	C1104.208130,288.887421 1103.604126,289.031921 1103.000000,289.176422 
	C1103.000000,302.277008 1103.000000,315.377563 1103.000000,329.470459 
M1149.068604,291.402222 
	C1147.911011,292.562134 1146.753296,293.722015 1145.772583,294.704712 
	C1144.929321,292.292694 1144.310059,290.521393 1143.690918,288.750061 
	C1143.127197,288.922180 1142.563599,289.094299 1142.000000,289.266418 
	C1142.000000,304.885254 1141.961792,320.504364 1142.070312,336.122437 
	C1142.079224,337.408417 1143.084106,338.687500 1143.626099,339.969818 
	C1144.084106,338.603180 1144.898926,337.246429 1144.937134,335.868134 
	C1145.089355,330.370300 1145.000000,324.865784 1145.000000,318.644409 
	C1153.577515,326.810760 1161.074341,327.123901 1167.368896,320.093628 
	C1171.552246,315.421356 1172.093140,309.615540 1172.024170,303.630432 
	C1171.867676,290.058167 1159.023071,283.406311 1149.068604,291.402222 
M822.261169,321.007385 
	C812.549255,324.559692 804.250305,317.862701 805.404968,306.984039 
	C813.777832,306.984039 822.202515,306.984039 830.998291,306.984039 
	C830.998291,305.150665 831.140625,303.683167 830.973694,302.251709 
	C830.244080,295.994843 827.749451,290.741302 821.584290,288.254059 
	C817.078430,286.436249 809.626648,289.042236 806.130249,293.431519 
	C802.367371,298.155273 801.380798,303.742157 802.029053,309.584778 
	C803.559998,323.382629 813.757202,327.790527 824.840820,323.525787 
	C826.685303,322.816040 827.986755,320.695068 829.539185,319.226257 
	C829.221619,318.896667 828.904053,318.567078 828.586548,318.237518 
	C826.750610,319.148987 824.914673,320.060455 822.261169,321.007385 
M905.787231,323.946503 
	C906.524719,322.876770 907.868042,321.825104 907.900635,320.734375 
	C908.099182,314.079926 907.823975,307.410736 908.046936,300.757843 
	C908.296448,293.312317 903.378479,286.567200 894.013428,288.164703 
	C890.499268,288.764160 885.399109,288.662018 884.893066,294.667267 
	C900.041077,288.903992 905.510498,290.885132 904.655090,301.902405 
	C900.613647,302.592651 896.490906,303.288147 892.371460,304.002625 
	C887.765564,304.801514 883.397339,306.929108 882.479675,311.473938 
	C881.820740,314.737915 882.783325,319.371429 884.853149,321.888733 
	C887.638794,325.276520 892.380005,326.455017 896.868958,324.013702 
	C899.694031,322.477264 902.319824,320.574310 905.097351,318.795929 
	C905.097351,320.117950 905.097351,321.765137 905.787231,323.946503 
M751.999268,289.021851 
	C743.933899,293.073730 741.627991,300.016144 741.964172,308.476349 
	C742.293640,316.768066 748.099426,324.176758 755.669067,324.938629 
	C764.711670,325.848724 771.344910,322.579559 773.914246,313.335388 
	C774.812805,310.102386 775.358948,306.476410 774.873474,303.207001 
	C773.161682,291.680206 764.635498,285.312775 751.999268,289.021851 
M928.468567,308.978607 
	C927.557373,307.930847 926.646240,306.883118 925.264221,305.294067 
	C930.912415,299.721436 936.203491,294.501160 941.494507,289.280884 
	C933.000610,291.641602 929.307495,300.178741 921.999939,304.742462 
	C921.999939,294.798340 922.052917,285.193542 921.934875,275.590790 
	C921.919617,274.348053 921.020386,273.116180 920.530579,271.879272 
	C920.020630,272.084015 919.510742,272.288757 919.000793,272.493500 
	C919.000793,288.766052 918.980225,305.038666 919.056824,321.310822 
	C919.061035,322.197388 919.876831,323.080170 920.314819,323.964722 
	C920.876404,323.037750 921.887878,322.127502 921.923157,321.181000 
	C922.092834,316.616974 921.999573,312.043152 921.999573,306.013977 
	C926.738586,311.302856 930.461792,315.613617 934.365906,319.753723 
	C936.530273,322.048950 938.383301,325.483643 943.073547,323.240021 
	C938.235229,318.513367 933.610046,313.994873 928.468567,308.978607 
M987.000000,316.418640 
	C987.000061,323.325226 987.000061,323.325226 989.998352,323.506836 
	C989.998352,315.351257 990.277527,307.197784 989.914978,299.072906 
	C989.592102,291.835297 984.585754,287.122589 977.800354,288.217346 
	C973.915710,288.844086 970.383057,291.652527 967.248474,293.203339 
	C966.961731,292.452637 966.267883,290.636505 965.574036,288.820374 
	C965.049805,289.043518 964.525635,289.266663 964.001404,289.489777 
	C964.001404,300.136230 963.961731,310.783081 964.072693,321.428375 
	C964.082092,322.333038 965.096680,323.227234 965.644287,324.126312 
	C966.096191,323.911591 966.548096,323.696869 967.000000,323.482147 
	C967.000000,319.006226 966.870117,314.525360 967.039246,310.055847 
	C967.187195,306.146301 967.149292,302.111298 968.136719,298.381378 
	C969.425049,293.515228 974.844238,290.372864 979.348755,291.006683 
	C983.761719,291.627625 986.913574,295.870697 986.987366,301.444427 
	C987.049072,306.109009 987.000000,310.775055 987.000000,316.418640 
M869.000000,291.508118 
	C869.000000,301.164459 868.957275,310.821259 869.052185,320.476654 
	C869.064636,321.741150 869.783569,322.998688 870.175354,324.259430 
	C870.788452,324.131042 871.401611,324.002655 872.014771,323.874268 
	C872.014771,308.664734 872.014771,293.455170 872.014771,278.388428 
	C876.961914,277.168060 882.013306,279.302582 886.002136,275.963837 
	C876.086914,275.020905 866.308960,275.008789 856.531311,275.037079 
	C855.376709,275.040405 854.222778,275.264740 853.068542,275.386627 
	C853.751953,276.265381 854.435364,277.144135 855.118774,278.022888 
	C859.672607,278.022888 864.226379,278.022888 869.000000,278.022888 
	C869.000000,282.562866 869.000000,286.537109 869.000000,291.508118 
M788.695312,324.138367 
	C794.344910,325.878540 796.523438,325.032074 796.432617,321.132019 
	C790.790649,322.886932 788.300293,322.027985 788.112610,317.486786 
	C787.764648,309.067017 788.012878,300.622650 788.012878,291.818451 
	C791.358826,291.818451 794.123352,291.818451 797.604675,291.818451 
	C795.302124,286.661285 790.637329,290.641754 787.794189,288.010559 
	C787.794189,285.295502 787.794189,282.224854 787.794189,279.154205 
	C787.194641,279.066345 786.595154,278.978485 785.995605,278.890625 
	C785.471558,282.236115 784.947449,285.581635 784.575623,287.955292 
	C782.398315,289.022491 780.714966,289.847595 779.031616,290.672729 
	C780.835999,291.330322 782.640381,291.987915 785.000000,292.847870 
	C785.000000,300.110962 784.742371,307.914886 785.141174,315.685181 
	C785.278992,318.369720 787.049683,320.970490 788.695312,324.138367 
M960.101196,383.474396 
	C959.007812,386.880859 957.914429,390.287354 956.477905,394.762939 
	C954.728882,383.942963 953.995361,382.792969 950.145142,383.816010 
	C951.654907,388.522766 953.165466,393.231750 954.735352,398.125824 
	C962.028809,397.864288 958.431702,390.408997 961.377441,387.841492 
	C964.571533,390.620117 961.119324,397.786133 968.320435,398.113403 
	C969.919983,392.997437 971.423401,388.188934 972.926819,383.380402 
	C972.406799,383.130219 971.886780,382.880066 971.366760,382.629883 
	C966.619324,384.949066 968.880798,391.031952 966.405640,394.400604 
	C965.643738,391.517242 965.016418,388.340118 963.895142,385.348083 
	C963.517212,384.339600 961.885681,383.800903 960.101196,383.474396 
M813.584717,390.946869 
	C813.170959,392.557922 811.980286,394.572998 812.551697,395.671783 
	C813.182495,396.885040 815.397461,397.783264 816.978577,397.877777 
	C819.528503,398.030151 822.124573,397.411865 824.802979,397.107513 
	C825.594666,385.210602 824.842224,383.202637 819.191040,383.020264 
	C816.478333,382.932678 813.440369,382.582031 812.903320,386.910583 
	C816.443481,386.543091 819.816833,384.252716 822.448242,388.517395 
	C819.190857,389.235260 816.665527,389.791779 813.584717,390.946869 
M1023.752991,385.924194 
	C1023.432373,384.103912 1023.111694,382.283600 1022.707947,379.991760 
	C1025.702515,379.991760 1027.997925,380.076843 1030.278931,379.933075 
	C1030.863770,379.896210 1031.403320,379.136688 1031.963623,378.709167 
	C1031.379272,378.141541 1030.817749,377.113525 1030.206665,377.083099 
	C1026.935059,376.920258 1023.651062,377.006287 1020.224487,377.006287 
	C1020.224487,384.170105 1020.224487,390.895325 1020.224487,397.996918 
	C1023.561646,397.996918 1026.684082,398.077637 1029.796509,397.937775 
	C1030.536255,397.904541 1031.242798,397.132660 1031.964600,396.700531 
	C1031.208496,396.134613 1030.496460,395.170166 1029.687500,395.080475 
	C1027.596069,394.848633 1025.461670,395.002747 1023.226685,395.002747 
	C1023.226685,392.819580 1023.226685,391.084015 1023.226685,389.283630 
	C1023.905457,389.166901 1024.376343,389.103027 1024.839478,389.003357 
	C1026.883423,388.563446 1028.925049,388.113220 1030.967529,387.666687 
	C1028.870117,387.108704 1026.772827,386.550751 1023.752991,385.924194 
M1078.901733,394.435028 
	C1080.670776,398.993835 1084.643921,398.057434 1088.086304,397.822510 
	C1089.212646,397.745667 1090.235718,396.155579 1092.088013,394.601532 
	C1087.002808,394.784454 1082.942139,396.654358 1080.753906,390.859253 
	C1084.811768,390.859253 1088.355957,390.859253 1091.905396,390.859253 
	C1091.546997,385.020050 1088.399414,382.065918 1084.034424,383.026764 
	C1079.674805,383.986389 1077.697510,387.734711 1078.901733,394.435028 
M925.429932,397.100464 
	C926.015381,396.349030 926.600830,395.597595 927.438171,394.522980 
	C922.907959,394.853607 918.932861,396.579132 916.746216,390.953674 
	C920.786560,390.953674 924.237549,390.953674 927.769104,390.953674 
	C928.553711,386.833588 926.823303,384.237762 923.351135,383.228668 
	C919.854614,382.212494 916.447327,383.564758 915.199097,386.920563 
	C914.289856,389.365082 914.138306,392.853760 915.231262,395.110809 
	C917.098877,398.967712 921.217834,398.227936 925.429932,397.100464 
M847.615906,394.072784 
	C847.050781,393.225830 846.485657,392.378876 845.534729,390.953705 
	C849.791870,390.953705 853.242981,390.953705 856.679199,390.953705 
	C856.850464,385.618317 855.058105,383.246674 850.902405,383.002106 
	C847.171631,382.782501 843.600891,385.741486 843.009644,389.542816 
	C842.334717,393.882385 844.496704,397.586639 848.419861,397.886383 
	C851.207275,398.099426 854.859253,399.093597 856.221680,394.698883 
	C853.199280,394.698883 850.692627,394.698883 847.615906,394.072784 
M841.027588,395.540375 
	C838.893005,394.027405 836.758423,392.514404 834.623779,391.001404 
	C834.840332,390.249847 835.056885,389.498291 835.273438,388.746735 
	C837.540894,387.090118 839.808350,385.433502 842.325562,383.594482 
	C836.359070,381.201416 835.984558,387.646515 831.996826,388.610077 
	C831.996826,384.731781 832.065125,380.975647 831.938599,377.226074 
	C831.913574,376.483643 831.140442,375.766418 830.712219,375.037506 
	C830.142395,375.790344 829.092224,376.534119 829.077759,377.297516 
	C828.948730,384.100708 829.002686,390.907440 829.002686,397.929230 
	C830.012085,397.929230 831.162170,398.047882 831.193237,397.911469 
	C831.677002,395.789429 832.016052,393.634369 832.391052,391.472351 
	C839.929871,398.000275 839.929871,398.000275 842.560913,397.137268 
	C842.225586,396.770721 841.890198,396.404175 841.027588,395.540375 
M994.000366,395.216827 
	C994.567688,396.132080 995.135010,397.047333 995.702271,397.962616 
	C996.134644,397.073578 996.765686,396.223145 996.948059,395.285461 
	C997.165955,394.165924 997.059448,392.968018 996.988342,391.810516 
	C996.810364,388.914764 997.326172,386.089111 1000.777283,386.119812 
	C1004.499023,386.152954 1003.928955,389.419189 1003.993896,391.931458 
	C1004.032471,393.424347 1003.770020,394.977570 1004.114624,396.388458 
	C1004.294312,397.124054 1005.495361,397.610199 1007.000000,398.828217 
	C1007.000000,395.549896 1007.000183,393.579529 1006.999878,391.609161 
	C1006.998657,383.067444 1005.051086,381.656769 996.999390,384.607666 
	C996.999390,382.235687 997.124084,379.933228 996.937683,377.656219 
	C996.863647,376.752655 996.099792,375.905579 995.650146,375.032806 
	C995.100220,375.967102 994.100830,376.888916 994.074402,377.837738 
	C993.922241,383.311035 994.000122,388.790741 994.000366,395.216827 
M898.962952,385.752350 
	C898.072998,385.089447 897.260742,384.266022 896.279663,383.791656 
	C892.272705,381.854187 888.708679,382.903748 886.355042,386.389038 
	C884.008362,389.864044 883.802429,394.001587 887.939758,396.168945 
	C890.247314,397.377777 894.036682,397.721405 896.288513,396.641449 
	C900.288452,394.723175 901.123779,390.768372 898.962952,385.752350 
M1043.582642,397.052277 
	C1044.899170,397.438751 1046.215576,397.825226 1047.532104,398.211700 
	C1042.329956,392.984802 1042.785645,388.108368 1047.934448,383.456757 
	C1042.147217,381.472626 1043.266724,387.417877 1040.549438,388.720428 
	C1037.460449,383.020782 1037.460449,383.020782 1033.395996,383.827942 
	C1039.055420,388.648163 1037.813477,393.290649 1032.727051,397.733093 
	C1033.282837,398.113159 1033.838623,398.493195 1034.394409,398.873230 
	C1036.607544,396.854034 1038.820801,394.834869 1040.883545,392.952911 
	C1041.382935,393.788147 1042.208008,395.168274 1043.582642,397.052277 
M880.997925,387.981720 
	C880.688477,384.747192 878.960205,382.916229 875.662781,383.041656 
	C873.224915,383.134430 870.800049,383.570160 868.002502,383.895813 
	C868.002502,387.425568 867.917419,391.559174 868.077820,395.683258 
	C868.108093,396.463562 869.113586,397.205963 869.669128,397.965851 
	C870.111572,397.255035 870.857910,396.575897 870.936096,395.827057 
	C871.124268,394.023956 870.456909,391.941254 871.144104,390.430511 
	C871.932495,388.697327 873.809937,387.459534 875.214172,386.006470 
	C876.142761,387.407745 877.467834,388.699463 877.893433,390.239777 
	C878.361450,391.933289 877.832886,393.878693 878.078003,395.667816 
	C878.190857,396.491486 879.112610,397.204315 879.667603,397.967407 
	C880.110596,397.258392 880.882141,396.573151 880.935547,395.835907 
	C881.102661,393.528259 880.998779,391.200958 880.997925,387.981720 
M950.000000,302.509552 
	C950.000000,309.628357 950.000000,316.747162 950.000000,323.994415 
	C951.186768,323.920074 952.392273,323.883789 952.392578,323.839050 
	C952.474182,312.274506 952.472046,300.709412 952.472046,289.144318 
	C951.097900,289.628448 950.135132,290.549286 950.077087,291.523987 
	C949.879333,294.843811 950.000549,298.182648 950.000000,302.509552 
M804.054138,397.103027 
	C806.460449,398.958801 807.027222,397.768555 807.010071,395.377167 
	C806.973511,390.277527 806.998840,385.177429 806.998840,380.828125 
	C809.673157,379.942139 811.462524,379.349335 813.251892,378.756561 
	C813.082275,378.277039 812.912659,377.797516 812.742981,377.317993 
	C807.857544,377.317993 802.972046,377.317993 798.086548,377.317993 
	C797.960327,377.897064 797.834045,378.476135 797.707764,379.055206 
	C799.637390,379.518372 801.567017,379.981537 804.004944,380.566711 
	C804.004944,385.583282 804.004944,390.874084 804.054138,397.103027 
M1102.401001,397.118408 
	C1106.064087,394.551636 1105.940552,392.189606 1102.007202,390.009888 
	C1100.269531,389.046967 1098.503052,388.135986 1096.749634,387.201416 
	C1096.920532,386.795959 1097.091431,386.390503 1097.262329,385.985046 
	C1099.428589,386.094360 1101.594849,386.203705 1103.760986,386.313019 
	C1103.989136,385.957062 1104.217407,385.601074 1104.445557,385.245117 
	C1103.121094,384.496918 1101.679810,382.984283 1100.497559,383.165161 
	C1098.271240,383.505707 1096.194214,384.822784 1094.055176,385.733948 
	C1094.829834,387.407593 1095.219604,389.505188 1096.477173,390.647095 
	C1098.033203,392.060242 1100.309448,392.680389 1102.274536,393.643127 
	C1102.121704,393.978607 1101.968872,394.314056 1101.816040,394.649536 
	C1099.224121,394.649536 1096.632324,394.649536 1093.604126,394.649536 
	C1095.220703,399.741486 1098.907837,397.646667 1102.401001,397.118408 
M1110.709473,394.999847 
	C1109.526978,394.887756 1108.344482,394.775665 1107.161865,394.663574 
	C1106.978638,395.126129 1106.795288,395.588684 1106.611938,396.051239 
	C1108.296631,396.700806 1110.128784,398.111969 1111.631104,397.820984 
	C1113.870728,397.387146 1115.877563,395.752563 1117.983521,394.628876 
	C1116.839111,393.065643 1115.894653,391.283905 1114.492920,390.002045 
	C1113.157349,388.780792 1111.344727,388.081207 1109.741821,387.152222 
	C1109.904785,386.764832 1110.067749,386.377411 1110.230713,385.990021 
	C1112.400757,386.092468 1114.570801,386.194885 1116.740845,386.297333 
	C1116.973633,385.958374 1117.206299,385.619415 1117.439087,385.280487 
	C1116.128052,384.520538 1114.702759,382.991486 1113.530518,383.165619 
	C1111.297729,383.497253 1109.209473,384.801422 1107.061157,385.701782 
	C1107.824585,387.380035 1108.197632,389.486786 1109.450317,390.627991 
	C1111.011108,392.049774 1113.297363,392.675140 1115.270386,393.644440 
	C1115.126343,394.015808 1114.982300,394.387146 1114.838257,394.758484 
	C1113.737671,394.838989 1112.637085,394.919495 1110.709473,394.999847 
M935.556519,386.000366 
	C936.928589,386.154236 938.300720,386.308075 939.672791,386.461945 
	C939.324829,384.698334 938.077881,383.015839 937.119568,383.166687 
	C934.712280,383.545685 932.435425,384.753265 930.106262,385.628632 
	C930.831482,387.316040 931.148865,389.449921 932.384460,390.578735 
	C933.955261,392.013885 936.270081,392.634552 938.264160,393.606384 
	C938.124207,393.966187 937.984253,394.325989 937.844360,394.685791 
	C935.255920,394.685791 932.667542,394.685791 930.040283,394.685791 
	C929.923828,398.903992 933.108704,398.336578 935.228577,397.851013 
	C937.294434,397.377777 939.080811,395.684509 940.989807,394.526855 
	C939.813416,392.982666 938.806274,391.255859 937.403503,389.955902 
	C936.402527,389.028290 934.869995,388.674255 933.574768,388.064331 
	C933.964294,387.377380 934.353821,386.690460 935.556519,386.000366 
M984.898804,396.349487 
	C986.513611,396.890350 988.117371,397.479340 989.769409,397.857727 
	C989.873352,397.881531 990.354004,396.261078 990.659363,395.405579 
	C984.616821,394.252258 987.813660,389.659821 987.034363,386.766876 
	C988.581970,386.028412 989.768188,385.462433 990.954346,384.896454 
	C990.607849,384.279541 990.385681,383.527832 989.890930,383.071716 
	C988.546387,381.832153 987.086487,380.717773 985.609131,379.501770 
	C982.812622,382.404419 982.498962,383.763763 983.887573,386.883270 
	C984.197876,387.580444 983.969543,388.514587 984.001221,389.339172 
	C984.083313,391.479492 984.171997,393.619598 984.898804,396.349487 
M905.043823,380.787384 
	C904.452820,381.530945 903.768372,382.220398 903.297729,383.033630 
	C902.843811,383.817841 902.610718,384.729828 902.280701,385.585724 
	C906.626465,386.313751 904.819458,389.737732 904.933899,392.089355 
	C905.203552,397.629486 906.246948,398.541199 914.142822,396.922455 
	C907.101501,394.963623 907.475525,390.806946 908.224060,386.571411 
	C909.509521,386.019714 910.728516,385.496521 911.947510,384.973328 
	C911.628113,384.332642 911.217529,383.106201 911.003052,383.139618 
	C908.008728,383.605621 907.890747,381.629303 907.802490,379.577789 
	C907.014832,379.739868 906.227173,379.901978 905.043823,380.787384 
M1071.000000,391.747772 
	C1070.785156,388.596771 1071.517822,386.223511 1075.296997,385.921234 
	C1075.895508,385.873383 1076.414185,384.827087 1076.969849,384.242432 
	C1076.244873,383.829468 1075.508789,383.050873 1074.797119,383.072632 
	C1072.722900,383.136169 1070.658447,383.519623 1068.000122,383.851288 
	C1068.000122,387.105652 1067.904907,391.019958 1068.064209,394.923889 
	C1068.106323,395.957336 1068.932007,396.958771 1069.397827,397.974915 
	C1069.931763,397.023468 1070.611816,396.120789 1070.951172,395.104401 
	C1071.199463,394.360687 1071.000000,393.467499 1071.000000,391.747772 
M975.000366,385.767578 
	C975.001831,389.217133 974.923828,392.670166 975.075928,396.113068 
	C975.104248,396.754242 976.057129,397.354553 976.583313,397.973694 
	C977.049072,397.462921 977.903564,396.963440 977.918762,396.439575 
	C978.033325,392.500763 978.033875,388.555756 977.923584,384.616760 
	C977.908508,384.076996 977.084167,383.559937 976.634521,383.032349 
	C976.091370,383.630676 975.548218,384.229004 975.000366,385.767578 
z"/>
<path fill="#F8F9FA" opacity="1.000000" stroke="none" 
	d="
M24.696930,41.317642 
	C26.166689,44.628536 27.430927,47.609432 28.958439,51.211094 
	C31.544394,45.841846 33.774582,41.211288 36.004765,36.580727 
	C36.526230,36.785896 37.047695,36.991062 37.569160,37.196232 
	C37.569160,43.013046 37.569160,48.829861 37.569160,54.646675 
	C37.245029,54.677139 36.920898,54.707600 36.596767,54.738060 
	C36.596767,50.452782 36.596767,46.167503 36.596767,41.882225 
	C36.220566,41.839428 35.844368,41.796631 35.468166,41.753834 
	C33.499226,46.136814 31.530281,50.519794 29.130890,55.860981 
	C26.668970,50.622768 24.591665,46.202896 22.514360,41.783024 
	C22.242130,41.814762 21.969902,41.846500 21.697674,41.878242 
	C21.697674,46.152237 21.697674,50.426228 21.697674,54.700222 
	C21.313328,54.696606 20.928984,54.692986 20.544638,54.689369 
	C20.544638,48.934223 20.544638,43.179073 20.544638,37.423927 
	C20.846096,37.157513 21.147552,36.891098 21.449011,36.624683 
	C22.463144,38.079002 23.477278,39.533325 24.696930,41.317642 
z"/>
<path fill="#F8F9FA" opacity="1.000000" stroke="none" 
	d="
M73.524612,50.262039 
	C73.949997,46.145092 74.020187,42.166317 74.128418,38.188576 
	C74.136253,37.900307 74.420715,37.619564 75.290268,36.033703 
	C75.290268,43.056152 75.290268,48.841228 75.290268,55.299385 
	C69.309586,51.995640 68.100426,45.075451 62.911514,40.365673 
	C62.911514,45.407589 62.911514,50.063736 62.911514,54.719879 
	C62.449825,54.708858 61.988140,54.697838 61.526451,54.686821 
	C61.526451,48.933632 61.526451,43.180443 61.526451,36.743538 
	C67.756844,39.504181 68.438354,46.799889 73.524612,50.262039 
z"/>
<path fill="#F8F9FA" opacity="1.000000" stroke="none" 
	d="
M138.180634,54.311493 
	C137.080688,54.272858 136.001587,55.020710 135.286728,54.762020 
	C133.469025,54.104240 131.814301,52.996109 130.094330,52.068245 
	C131.077744,50.687450 131.819977,48.982594 133.114166,48.019352 
	C134.345169,47.103149 136.152908,46.961849 137.707062,46.479851 
	C137.758942,45.989937 137.810822,45.500027 137.862701,45.010117 
	C135.721863,44.840195 133.581039,44.670273 130.965134,44.462643 
	C132.217438,41.795116 134.869019,41.363636 137.689560,42.460682 
	C140.757477,43.653942 141.082855,52.024849 138.180634,54.311493 
z"/>
<path fill="#F8F9FA" opacity="1.000000" stroke="none" 
	d="
M79.971756,51.864880 
	C78.099022,47.747662 78.854851,44.740135 82.608185,42.838631 
	C85.735527,41.254276 88.719482,41.261044 90.818413,44.606831 
	C92.716583,47.632607 92.666870,50.926838 90.050972,53.201778 
	C86.741692,56.079731 83.096863,55.811867 79.971756,51.864880 
M85.507248,52.994640 
	C88.885323,52.904785 90.535217,50.903988 89.822998,47.863174 
	C89.474503,46.375233 87.438171,44.281166 86.144157,44.265667 
	C84.467720,44.245594 81.858688,45.661499 81.278755,47.110573 
	C80.212135,49.775734 81.317017,52.319302 85.507248,52.994640 
z"/>
<path fill="#F8F9FA" opacity="1.000000" stroke="none" 
	d="
M42.411526,42.995388 
	C43.619747,46.138233 44.569969,49.018543 45.974731,53.276665 
	C46.989422,50.188938 47.476734,48.386654 48.175926,46.670704 
	C48.838127,45.045525 49.722538,43.510891 51.095886,42.262379 
	C48.322407,48.798702 48.657894,57.221359 40.660053,60.831848 
	C46.665359,57.462547 44.747471,53.164230 42.352272,48.607304 
	C41.456524,46.903126 41.164082,44.881847 40.596558,43.005150 
	C41.115547,42.914383 41.634537,42.823620 42.411526,42.995388 
z"/>
<path fill="#F8F9FA" opacity="1.000000" stroke="none" 
	d="
M96.001389,50.774612 
	C95.466911,48.099003 94.431587,45.835457 94.557175,43.638275 
	C94.659294,41.851540 96.152885,40.144341 96.994698,38.470879 
	C98.276321,40.178860 99.374138,41.641876 100.472778,43.106007 
	C96.849037,45.651798 96.821411,51.394165 100.712013,53.946651 
	C97.005157,55.302364 97.005157,55.302364 96.001389,50.774612 
z"/>
<path fill="#F8F9FA" opacity="1.000000" stroke="none" 
	d="
M118.928612,43.917248 
	C120.859978,41.145988 123.199905,41.327332 125.595169,43.148708 
	C128.753586,45.550396 128.633392,48.610203 127.037315,51.841595 
	C125.468910,55.016964 123.143333,56.023869 119.834076,53.761204 
	C119.771645,53.289658 120.069603,52.916992 120.462059,52.949554 
	C124.671661,53.177326 126.553574,51.185307 125.879860,47.591335 
	C125.256622,44.266655 122.936089,43.098072 119.479790,44.481525 
	C119.173248,44.168362 119.050934,44.042805 118.928612,43.917248 
z"/>
<path fill="#F8F9FA" opacity="1.000000" stroke="none" 
	d="
M151.544022,43.416969 
	C152.029099,42.689049 152.801636,42.011261 152.939148,41.222717 
	C153.221878,39.601696 153.164841,37.921413 153.247650,36.265526 
	C153.657761,36.277279 154.067856,36.289032 154.477951,36.300785 
	C154.477951,42.417717 154.477951,48.534653 154.477951,55.146023 
	C153.507965,54.405014 152.840027,53.894756 151.713684,53.309170 
	C151.255264,53.233837 150.930389,52.916985 151.096100,52.594566 
	C154.324570,49.414028 153.214417,46.724777 151.093384,43.925339 
	C151.256363,43.767643 151.544022,43.416969 151.544022,43.416969 
z"/>
<path fill="#F8F9FA" opacity="1.000000" stroke="none" 
	d="
M151.398514,53.409798 
	C149.168243,56.094746 146.970963,55.356037 144.769104,53.286827 
	C141.922195,50.611439 142.624344,47.598392 144.152863,44.751331 
	C145.694153,41.880482 148.101974,40.926544 151.335068,43.125519 
	C151.544022,43.416969 151.256363,43.767643 150.701111,43.892677 
	C146.719955,43.837646 144.811569,45.376438 145.040390,48.891659 
	C145.281509,52.595589 147.799927,53.278519 150.930389,52.916985 
	C150.930389,52.916985 151.255264,53.233837 151.398514,53.409798 
z"/>
<path fill="#F8F9FA" opacity="1.000000" stroke="none" 
	d="
M119.608582,53.463799 
	C118.964081,54.345627 118.193695,55.003403 118.061050,55.771339 
	C117.780716,57.394260 117.833679,59.074757 117.749931,60.731632 
	C117.198029,60.730057 116.646118,60.728481 116.094215,60.726906 
	C116.094215,54.845463 116.094215,48.964020 116.094215,43.082577 
	C116.817940,43.256870 117.541672,43.431164 118.597000,43.761353 
	C119.050934,44.042805 119.173248,44.168362 119.236618,44.744347 
	C116.833237,48.073967 118.013741,50.546032 120.069603,52.916992 
	C120.069603,52.916992 119.771645,53.289658 119.608582,53.463799 
z"/>
<path fill="#A2732A" opacity="1.000000" stroke="none" 
	d="
M1041.000000,465.011292 
	C1041.000000,474.337769 1041.057129,483.167175 1040.981567,491.995422 
	C1040.921997,498.966431 1037.077393,502.967438 1030.208008,502.974213 
	C982.398682,503.021454 934.589417,503.021667 886.780090,502.973877 
	C879.914856,502.967010 876.059692,498.962158 876.019958,491.983582 
	C875.949707,479.656830 875.948975,467.329132 876.020203,455.002411 
	C876.060425,448.032593 879.924194,444.032440 886.794128,444.025665 
	C934.603455,443.978516 982.412720,443.978241 1030.222046,444.026154 
	C1037.085938,444.033020 1040.872192,448.039856 1040.990845,455.018585 
	C1041.044556,458.182739 1041.000000,461.348602 1041.000000,465.011292 
M1015.697937,482.409424 
	C1016.436646,482.513794 1017.175293,482.618134 1017.914001,482.722504 
	C1017.914001,476.944794 1017.914001,471.167114 1017.914001,465.389404 
	C1017.486694,465.371674 1017.059387,465.353912 1016.632080,465.336182 
	C1016.110474,467.863159 1015.588867,470.390137 1014.701782,472.272247 
	C1011.739319,469.883850 1009.115295,470.477448 1007.283997,473.560333 
	C1005.513245,476.541199 1004.864136,479.741852 1007.973511,482.453552 
	C1010.425598,484.592102 1012.853394,485.064606 1015.697937,482.409424 
M967.983765,483.918304 
	C969.567993,483.598755 971.152222,483.279205 972.967834,482.912994 
	C972.967834,480.378326 973.403748,477.478027 972.795532,474.816254 
	C972.459473,473.345245 970.511414,471.493011 969.039124,471.232941 
	C967.428162,470.948425 965.527893,472.301880 963.753723,472.941437 
	C963.939514,473.161041 964.125244,473.380646 964.311035,473.600250 
	C966.467041,473.722443 968.623047,473.844635 970.984192,473.978424 
	C967.738708,476.458679 965.386719,478.256042 963.034790,480.053406 
	C964.434326,481.361694 965.833923,482.669983 967.983765,483.918304 
M925.915894,476.613922 
	C925.973206,472.964355 923.922791,470.510345 920.583679,471.256012 
	C918.463867,471.729340 916.158508,474.295898 915.229614,476.475037 
	C913.919861,479.547546 915.648071,482.553894 918.744019,483.629120 
	C920.483521,484.233246 922.768311,483.267120 924.807373,483.008453 
	C924.720581,482.569244 924.633728,482.130035 924.546936,481.690826 
	C921.507874,482.048950 918.273071,482.818329 917.204895,478.423065 
	C920.210205,478.061920 922.941956,477.733643 925.915894,476.613922 
M1000.107544,483.986481 
	C1001.048340,483.490936 1001.989075,482.995392 1002.929871,482.499817 
	C999.559326,482.001526 996.284851,482.841156 995.147705,478.268097 
	C998.197571,478.072418 1000.938293,477.896576 1003.654480,477.722321 
	C1004.436768,474.066040 1003.019348,471.922760 999.840698,471.127838 
	C996.778625,470.362091 994.868469,471.913788 993.671692,474.726471 
	C991.580261,479.641510 993.714294,483.214020 1000.107544,483.986481 
M945.126709,471.132843 
	C945.560059,465.280640 950.642212,469.569122 954.059570,466.885284 
	C951.830566,466.461884 950.404175,465.712372 949.446655,466.105316 
	C947.229492,467.015320 945.239319,468.478088 943.157043,469.716644 
	C944.364929,471.600159 945.433228,473.597992 946.841431,475.317474 
	C947.514099,476.138794 948.988831,476.259430 949.814575,477.011200 
	C950.678772,477.798065 951.856567,479.094299 951.688660,479.922913 
	C951.517822,480.765930 949.943604,481.706543 948.859558,481.897095 
	C947.024353,482.219635 945.091248,481.985718 943.199341,481.985718 
	C943.132202,482.482697 943.065002,482.979675 942.997864,483.476685 
	C945.068787,483.642609 947.304688,484.365234 949.163086,483.814240 
	C950.937073,483.288269 953.251831,481.645813 953.598389,480.105011 
	C953.920288,478.673859 952.269165,476.408264 950.917542,475.096497 
	C949.435608,473.658356 947.302185,472.891479 945.126709,471.132843 
M900.320618,472.283264 
	C900.401123,471.608948 900.481567,470.934601 900.633301,469.663208 
	C897.342712,473.800842 897.140137,478.205688 899.837097,481.256256 
	C902.595581,484.376526 906.563904,485.223846 909.709900,483.285370 
	C911.544250,482.155060 911.729187,478.347717 912.964905,474.878174 
	C909.617798,475.111145 907.983215,475.224915 907.075623,475.288086 
	C908.050232,477.304718 908.842163,478.943207 909.634033,480.581726 
	C907.391357,480.705170 904.108337,481.792603 903.133850,480.740967 
	C901.385193,478.853912 901.023987,475.681274 900.320618,472.283264 
M991.711548,471.764069 
	C990.471008,470.435547 989.230469,469.107056 988.683105,468.520905 
	C986.001221,469.884705 983.636169,471.087402 980.058105,472.906952 
	C986.736572,471.666779 987.653381,474.746857 987.010254,479.141754 
	C986.939148,479.627838 986.963684,480.139160 987.017883,480.630554 
	C987.378052,483.893188 988.115723,484.248962 991.620239,482.879120 
	C987.862183,480.209839 987.857239,474.811768 991.711548,471.764069 
M929.668701,473.488190 
	C929.781555,475.805054 929.836975,478.126465 930.020874,480.437683 
	C930.290894,483.832367 930.882812,484.139984 934.623657,483.033936 
	C930.889465,480.216339 930.908508,474.712555 934.521606,472.196625 
	C933.406006,470.714539 932.289001,469.230560 930.692688,467.109863 
	C930.075439,469.292664 929.545654,471.166168 929.668701,473.488190 
M961.009338,482.117981 
	C957.843384,479.307617 958.155823,474.592529 961.424683,472.100098 
	C960.267395,470.591095 959.165405,469.154205 957.914001,467.522522 
	C954.384155,472.435913 957.864075,477.531250 957.275269,482.401672 
	C958.731750,482.462158 960.188232,482.522614 961.009338,482.117981 
M977.000000,477.535004 
	C977.155457,479.591431 977.310852,481.647858 977.466248,483.704285 
	C977.908752,483.662140 978.351196,483.620026 978.793701,483.577881 
	C978.793701,479.540436 978.793701,475.502960 978.793701,471.465515 
	C978.195801,471.461182 977.597900,471.456818 977.000000,471.452484 
	C977.000000,473.181274 977.000000,474.910095 977.000000,477.535004 
M906.621582,468.003174 
	C908.312866,468.003174 910.004211,468.003174 912.984802,468.003174 
	C908.389648,465.164551 905.233765,465.354340 902.279541,468.676025 
	C903.461243,468.456635 904.642944,468.237244 906.621582,468.003174 
z"/>
<path fill="#F2EDF7" opacity="1.000000" stroke="none" 
	d="
M1272.062622,306.967194 
	C1271.136230,307.783539 1270.209717,308.599884 1268.928955,309.649109 
	C1268.574707,309.881989 1268.135986,309.825867 1268.117432,309.479797 
	C1266.277344,306.722198 1264.524902,304.254028 1262.611450,301.917908 
	C1261.208130,300.204803 1259.593384,298.664978 1257.600586,296.998779 
	C1246.543213,296.949615 1235.958008,296.949615 1225.372681,296.949615 
	C1225.378296,297.690033 1225.383789,298.430420 1225.389282,299.170837 
	C1235.227539,299.170837 1245.065796,299.170837 1254.785156,299.469849 
	C1252.801636,301.195221 1250.936890,302.621613 1248.600098,303.998779 
	C1240.523071,304.542633 1232.649048,302.547089 1225.243774,305.060120 
	C1225.280151,305.763641 1225.316406,306.467194 1225.352661,307.170715 
	C1231.536377,307.170715 1237.720215,307.170715 1243.778320,307.477173 
	C1242.770264,308.514526 1241.997925,309.501404 1240.987915,309.934570 
	C1234.630615,312.661346 1231.750977,317.885406 1230.798096,324.310486 
	C1230.598633,325.655060 1231.752808,328.448059 1232.340210,328.463959 
	C1236.975830,328.589386 1241.770386,329.854004 1246.064087,326.512299 
	C1252.896851,321.194366 1259.953125,316.163361 1266.946045,311.477661 
	C1266.985718,316.770905 1266.856079,321.602966 1267.048950,326.422089 
	C1267.189453,329.932495 1265.732178,331.081543 1262.328369,331.051697 
	C1248.848022,330.933380 1235.365234,330.916687 1221.885498,331.062500 
	C1218.385742,331.100372 1217.015381,329.576630 1217.012817,326.378876 
	C1216.998047,308.403931 1216.995361,290.428955 1217.019775,272.454041 
	C1217.024292,269.158447 1218.658936,267.861511 1222.053467,267.935608 
	C1230.537598,268.120941 1239.028564,267.978485 1247.516479,268.024170 
	C1248.614624,268.030060 1249.710938,268.370453 1251.105103,268.606079 
	C1251.105103,271.675079 1251.204956,274.495667 1251.081299,277.306427 
	C1250.902710,281.369141 1252.776245,283.086243 1256.780029,282.922058 
	C1260.037231,282.788483 1263.304443,282.894928 1266.758179,282.894928 
	C1266.908569,285.795868 1267.019287,287.931183 1266.969727,290.376648 
	C1265.515381,291.827515 1264.220947,292.968292 1262.913574,294.120544 
	C1266.042603,298.514130 1269.052612,302.740662 1272.062622,306.967194 
M1257.903076,290.073578 
	C1247.055542,290.073578 1236.208008,290.073578 1225.360352,290.073578 
	C1225.376465,290.646118 1225.392578,291.218689 1225.408569,291.791229 
	C1236.307007,291.791229 1247.205444,291.796967 1258.103638,291.740326 
	C1258.279175,291.739410 1258.450806,290.975525 1257.903076,290.073578 
z"/>
<path fill="#B4ACBC" opacity="1.000000" stroke="none" 
	d="
M1268.135986,309.825867 
	C1268.135986,309.825867 1268.574707,309.881989 1268.790771,309.929016 
	C1269.004639,315.634796 1269.035400,321.293793 1268.990234,326.952148 
	C1268.949951,331.989807 1267.085205,333.966919 1262.198120,333.983704 
	C1248.717163,334.029999 1235.235962,333.979767 1221.754883,334.010834 
	C1217.277222,334.021149 1214.988037,331.967102 1214.992676,327.404449 
	C1215.011475,308.763947 1215.035034,290.123291 1214.976440,271.483002 
	C1214.961792,266.829132 1217.159302,264.917053 1221.703369,264.970245 
	C1230.523071,265.073517 1239.348633,264.865814 1248.162964,265.106262 
	C1250.075195,265.158386 1252.327271,266.132477 1253.770508,267.415649 
	C1257.743774,270.948090 1261.195190,275.070435 1265.192261,278.572144 
	C1268.242676,281.244415 1269.610840,284.223175 1268.914551,288.861755 
	C1268.246460,289.725464 1267.688110,289.895966 1267.129883,290.066498 
	C1267.019287,287.931183 1266.908569,285.795868 1266.758179,282.894928 
	C1263.304443,282.894928 1260.037231,282.788483 1256.780029,282.922058 
	C1252.776245,283.086243 1250.902710,281.369141 1251.081299,277.306427 
	C1251.204956,274.495667 1251.105103,271.675079 1251.105103,268.606079 
	C1249.710938,268.370453 1248.614624,268.030060 1247.516479,268.024170 
	C1239.028564,267.978485 1230.537598,268.120941 1222.053467,267.935608 
	C1218.658936,267.861511 1217.024292,269.158447 1217.019775,272.454041 
	C1216.995361,290.428955 1216.998047,308.403931 1217.012817,326.378876 
	C1217.015381,329.576630 1218.385742,331.100372 1221.885498,331.062500 
	C1235.365234,330.916687 1248.848022,330.933380 1262.328369,331.051697 
	C1265.732178,331.081543 1267.189453,329.932495 1267.048950,326.422089 
	C1266.856079,321.602966 1266.985718,316.770905 1267.073975,311.212769 
	C1267.492554,310.262726 1267.814331,310.044312 1268.135986,309.825867 
z"/>
<path fill="#212529" opacity="1.000000" stroke="none" 
	d="
M696.517334,275.027649 
	C707.454956,288.771484 717.974915,302.518005 728.680420,316.506958 
	C728.783081,315.418396 728.983459,314.268555 728.985779,313.118347 
	C729.009216,301.628967 728.959839,290.139191 729.059509,278.650604 
	C729.070007,277.440643 729.904785,276.237823 730.357117,275.031677 
	C730.904663,276.142181 731.921265,277.249420 731.929077,278.363678 
	C732.034485,293.468811 731.999817,308.574951 731.999817,323.680817 
	C731.541321,323.951050 731.082825,324.221283 730.624390,324.491516 
	C719.939392,310.500580 709.254395,296.509674 698.000000,281.773163 
	C698.000000,294.412384 698.000122,306.284119 697.999756,318.155823 
	C697.999695,319.487946 698.179321,320.856750 697.921631,322.137390 
	C697.783264,322.825378 696.891907,323.361938 696.340393,323.966827 
	C695.898132,323.421570 695.069580,322.876221 695.069763,322.331085 
	C695.073975,306.689484 695.159363,291.047913 695.271057,275.406555 
	C695.271912,275.279175 695.811584,275.155670 696.517334,275.027649 
z"/>
<path fill="#212529" opacity="1.000000" stroke="none" 
	d="
M1025.492676,289.257629 
	C1026.569092,289.475525 1027.893677,289.917480 1027.886597,290.336823 
	C1027.662476,303.550629 1028.408936,316.911285 1026.645264,329.929596 
	C1025.085571,341.442352 1007.590942,342.162262 1000.844910,337.238312 
	C1000.238037,336.795288 1000.195129,335.579559 999.574097,333.834015 
	C1006.946289,337.794067 1013.883423,338.676666 1020.184387,334.120636 
	C1025.388184,330.357941 1025.374878,324.393646 1024.907837,319.072723 
	C1022.332336,320.844849 1019.863281,323.521545 1016.890015,324.319275 
	C1013.810120,325.145691 1010.095276,324.689972 1006.919434,323.830048 
	C1001.669189,322.408417 998.101074,315.828613 997.987610,308.932922 
	C997.880066,302.390350 998.804382,296.211487 1003.972900,291.530670 
	C1008.730286,287.222198 1019.301270,285.519714 1024.777344,293.975250 
	C1024.914551,292.172760 1025.017212,290.821960 1025.492676,289.257629 
M1024.013306,314.182861 
	C1024.289917,309.286041 1025.369263,304.247650 1024.540161,299.545837 
	C1024.048096,296.755798 1021.029785,293.420715 1018.308960,292.200897 
	C1010.305237,288.612610 1004.401001,292.375153 1001.472290,302.015198 
	C999.189514,309.529175 1002.391296,318.200348 1008.539917,321.155609 
	C1014.138550,323.846527 1019.116943,321.865112 1024.013306,314.182861 
z"/>
<path fill="#212529" opacity="1.000000" stroke="none" 
	d="
M632.974609,310.931519 
	C637.302124,299.451691 641.576965,288.361481 645.958313,277.313507 
	C646.321289,276.398132 647.578064,275.036957 648.115845,275.164337 
	C649.113525,275.400757 650.316528,276.420837 650.688171,277.398193 
	C655.195435,289.252319 659.575745,301.154816 663.967163,313.052856 
	C665.248535,316.524811 666.460449,320.022400 666.933350,324.453125 
	C665.637024,323.395935 663.790955,322.597321 663.148865,321.232361 
	C661.319763,317.344421 661.065308,311.675049 658.145081,309.633301 
	C655.216309,307.585663 649.821106,309.061218 645.506714,309.002777 
	C644.176758,308.984741 642.831848,309.125946 641.518982,308.975098 
	C638.294495,308.604614 636.440369,309.466827 635.839844,313.124695 
	C635.355225,316.076294 633.975586,318.944916 632.612549,321.659332 
	C632.001709,322.875854 630.460388,323.625183 629.341370,324.586517 
	C628.946472,324.263763 628.551575,323.941010 628.156738,323.618225 
	C629.754395,319.522888 631.351990,315.427551 632.974609,310.931519 
M644.454590,289.036896 
	C642.602234,294.553955 640.749878,300.071045 638.824768,305.804749 
	C645.255676,305.804749 651.023376,305.804749 657.361755,305.804749 
	C654.272339,297.285889 651.311707,289.122192 647.985901,279.951538 
	C646.736084,283.426941 645.842163,285.912720 644.454590,289.036896 
z"/>
<path fill="#212529" opacity="1.000000" stroke="none" 
	d="
M1094.017090,321.798645 
	C1094.007812,322.785522 1093.979248,323.374969 1093.950806,323.964386 
	C1092.926514,323.489380 1091.332642,323.274384 1090.976440,322.494324 
	C1089.445557,319.141541 1088.187744,315.653076 1087.010864,312.153412 
	C1086.246094,309.879211 1085.118408,308.642639 1082.489014,308.949524 
	C1080.355835,309.198486 1078.170410,309.000000 1076.008179,309.000000 
	C1063.984131,309.000000 1064.045898,309.022552 1059.946045,320.256500 
	C1059.349976,321.889832 1057.837646,323.188782 1056.749512,324.642487 
	C1056.199097,324.294525 1055.648804,323.946564 1055.098389,323.598572 
	C1059.707031,311.542816 1064.309692,299.484802 1068.927856,287.432739 
	C1070.251465,283.978607 1071.562012,280.516998 1073.010376,277.114990 
	C1073.358643,276.297119 1074.606689,275.013489 1074.803955,275.120270 
	C1075.934570,275.732605 1077.351685,276.502106 1077.796265,277.579468 
	C1080.000732,282.922211 1081.961060,288.367096 1083.951660,293.796387 
	C1087.322388,302.989929 1090.651245,312.198761 1094.017090,321.798645 
M1066.343384,303.145538 
	C1066.911621,304.096252 1067.446533,305.846985 1068.053101,305.872192 
	C1073.300659,306.090149 1078.560913,305.997711 1084.296509,305.997711 
	C1082.729736,301.352814 1081.423584,297.255829 1079.963257,293.214478 
	C1078.474609,289.094116 1076.834595,285.028503 1074.872070,279.928864 
	C1071.982544,288.143127 1069.451660,295.337585 1066.343384,303.145538 
z"/>
<path fill="#212529" opacity="1.000000" stroke="none" 
	d="
M1103.000000,328.974304 
	C1103.000000,315.377563 1103.000000,302.277008 1103.000000,289.176422 
	C1103.604126,289.031921 1104.208130,288.887421 1104.812256,288.742920 
	C1105.386230,290.566559 1105.960205,292.390167 1106.698242,294.734894 
	C1107.624023,293.828339 1108.703125,292.767456 1109.786621,291.711029 
	C1117.435547,284.253357 1130.083496,288.425690 1132.156372,298.676270 
	C1133.655273,306.088196 1133.438965,313.029388 1129.168945,319.154968 
	C1123.632568,327.097290 1115.335449,326.984375 1106.150879,319.090698 
	C1106.150879,326.125458 1106.150879,332.805817 1106.150879,339.495117 
	C1103.000000,339.347992 1103.000000,339.347992 1103.000000,328.974304 
M1122.346924,291.845978 
	C1117.399048,289.895081 1113.210083,291.080719 1109.609985,294.868958 
	C1105.587524,299.101685 1105.913574,304.383179 1106.006958,309.603394 
	C1106.100952,314.858398 1110.807739,321.220276 1115.273682,321.958221 
	C1119.514771,322.658997 1125.828735,320.736969 1128.428833,314.272095 
	C1131.385986,306.919250 1130.450928,294.536987 1122.346924,291.845978 
z"/>
<path fill="#212529" opacity="1.000000" stroke="none" 
	d="
M1149.353638,291.153076 
	C1159.023071,283.406311 1171.867676,290.058167 1172.024170,303.630432 
	C1172.093140,309.615540 1171.552246,315.421356 1167.368896,320.093628 
	C1161.074341,327.123901 1153.577515,326.810760 1145.000000,318.644409 
	C1145.000000,324.865784 1145.089355,330.370300 1144.937134,335.868134 
	C1144.898926,337.246429 1144.084106,338.603180 1143.626099,339.969788 
	C1143.084106,338.687500 1142.079224,337.408417 1142.070312,336.122437 
	C1141.961792,320.504364 1142.000000,304.885254 1142.000000,289.266418 
	C1142.563599,289.094299 1143.127197,288.922180 1143.690918,288.750061 
	C1144.310059,290.521393 1144.929321,292.292694 1145.772583,294.704712 
	C1146.753296,293.722015 1147.911011,292.562134 1149.353638,291.153076 
M1154.883911,321.998047 
	C1156.778320,321.699432 1158.822998,321.759491 1160.541260,321.040039 
	C1167.917358,317.951538 1171.078003,308.087158 1168.090576,298.954102 
	C1166.632446,294.496582 1163.656006,291.852142 1159.322754,291.093292 
	C1154.454224,290.240723 1150.246582,292.095459 1147.379272,296.160248 
	C1141.549438,304.425018 1144.959961,317.317719 1154.883911,321.998047 
z"/>
<path fill="#212529" opacity="1.000000" stroke="none" 
	d="
M822.669922,320.989655 
	C824.914673,320.060455 826.750610,319.148987 828.586548,318.237518 
	C828.904053,318.567078 829.221619,318.896667 829.539185,319.226257 
	C827.986755,320.695068 826.685303,322.816040 824.840820,323.525787 
	C813.757202,327.790527 803.559998,323.382629 802.029053,309.584778 
	C801.380798,303.742157 802.367371,298.155273 806.130249,293.431519 
	C809.626648,289.042236 817.078430,286.436249 821.584290,288.254059 
	C827.749451,290.741302 830.244080,295.994843 830.973694,302.251709 
	C831.140625,303.683167 830.998291,305.150665 830.998291,306.984039 
	C822.202515,306.984039 813.777832,306.984039 805.404968,306.984039 
	C804.250305,317.862701 812.549255,324.559692 822.669922,320.989655 
M809.580200,293.945587 
	C807.810242,297.005463 806.040344,300.065338 803.931458,303.711151 
	C812.824097,303.711151 820.347839,303.711151 827.879822,303.711151 
	C827.287109,292.177155 819.714050,287.886505 809.580200,293.945587 
z"/>
<path fill="#212529" opacity="1.000000" stroke="none" 
	d="
M905.442261,323.679413 
	C905.097351,321.765137 905.097351,320.117950 905.097351,318.795929 
	C902.319824,320.574310 899.694031,322.477264 896.868958,324.013702 
	C892.380005,326.455017 887.638794,325.276520 884.853149,321.888733 
	C882.783325,319.371429 881.820740,314.737915 882.479675,311.473938 
	C883.397339,306.929108 887.765564,304.801514 892.371460,304.002625 
	C896.490906,303.288147 900.613647,302.592651 904.655090,301.902405 
	C905.510498,290.885132 900.041077,288.903992 884.893066,294.667267 
	C885.399109,288.662018 890.499268,288.764160 894.013428,288.164703 
	C903.378479,286.567200 908.296448,293.312317 908.046936,300.757843 
	C907.823975,307.410736 908.099182,314.079926 907.900635,320.734375 
	C907.868042,321.825104 906.524719,322.876770 905.442261,323.679413 
M896.726868,321.778931 
	C903.651001,317.635742 905.902283,312.750488 904.416077,305.094727 
	C900.257568,305.730499 895.949524,305.900726 891.995056,307.171570 
	C889.506470,307.971344 886.928162,310.041473 885.570740,312.263153 
	C884.677002,313.725891 885.267822,316.832214 886.280396,318.569275 
	C888.360352,322.137451 892.191406,322.282806 896.726868,321.778931 
z"/>
<path fill="#212529" opacity="1.000000" stroke="none" 
	d="
M752.408264,289.004456 
	C764.635498,285.312775 773.161682,291.680206 774.873474,303.207001 
	C775.358948,306.476410 774.812805,310.102386 773.914246,313.335388 
	C771.344910,322.579559 764.711670,325.848724 755.669067,324.938629 
	C748.099426,324.176758 742.293640,316.768066 741.964172,308.476349 
	C741.627991,300.016144 743.933899,293.073730 752.408264,289.004456 
M745.000122,308.247742 
	C747.286560,320.577179 756.675720,325.758698 766.224182,319.960510 
	C771.205139,316.935913 773.616699,308.017761 771.384888,300.875610 
	C769.344788,294.346924 765.563477,291.234985 759.724670,290.979614 
	C751.005249,290.598236 744.793762,296.419434 745.000122,308.247742 
z"/>
<path fill="#212529" opacity="1.000000" stroke="none" 
	d="
M928.726685,309.227478 
	C933.610046,313.994873 938.235229,318.513367 943.073547,323.240021 
	C938.383301,325.483643 936.530273,322.048950 934.365906,319.753723 
	C930.461792,315.613617 926.738586,311.302856 921.999573,306.013977 
	C921.999573,312.043152 922.092834,316.616974 921.923157,321.181000 
	C921.887878,322.127502 920.876404,323.037750 920.314819,323.964722 
	C919.876831,323.080170 919.061035,322.197388 919.056824,321.310822 
	C918.980225,305.038666 919.000793,288.766052 919.000793,272.493500 
	C919.510742,272.288757 920.020630,272.084015 920.530579,271.879272 
	C921.020386,273.116180 921.919617,274.348053 921.934875,275.590790 
	C922.052917,285.193542 921.999939,294.798340 921.999939,304.742462 
	C929.307495,300.178741 933.000610,291.641602 941.494507,289.280884 
	C936.203491,294.501160 930.912415,299.721436 925.264221,305.294067 
	C926.646240,306.883118 927.557373,307.930847 928.726685,309.227478 
z"/>
<path fill="#212529" opacity="1.000000" stroke="none" 
	d="
M987.000000,315.929535 
	C987.000000,310.775055 987.049072,306.109009 986.987366,301.444427 
	C986.913574,295.870697 983.761719,291.627625 979.348755,291.006683 
	C974.844238,290.372864 969.425049,293.515228 968.136719,298.381378 
	C967.149292,302.111298 967.187195,306.146301 967.039246,310.055847 
	C966.870117,314.525360 967.000000,319.006226 967.000000,323.482147 
	C966.548096,323.696869 966.096191,323.911591 965.644287,324.126312 
	C965.096680,323.227234 964.082092,322.333038 964.072693,321.428375 
	C963.961731,310.783081 964.001404,300.136230 964.001404,289.489777 
	C964.525635,289.266663 965.049805,289.043518 965.574036,288.820374 
	C966.267883,290.636505 966.961731,292.452637 967.248474,293.203339 
	C970.383057,291.652527 973.915710,288.844086 977.800354,288.217346 
	C984.585754,287.122589 989.592102,291.835297 989.914978,299.072906 
	C990.277527,307.197784 989.998352,315.351257 989.998352,323.506836 
	C987.000061,323.325226 987.000061,323.325226 987.000000,315.929535 
z"/>
<path fill="#212529" opacity="1.000000" stroke="none" 
	d="
M869.000000,291.009735 
	C869.000000,286.537109 869.000000,282.562866 869.000000,278.022888 
	C864.226379,278.022888 859.672607,278.022888 855.118774,278.022888 
	C854.435364,277.144135 853.751953,276.265381 853.068542,275.386627 
	C854.222778,275.264740 855.376709,275.040405 856.531311,275.037079 
	C866.308960,275.008789 876.086914,275.020905 886.002136,275.963837 
	C882.013306,279.302582 876.961914,277.168060 872.014771,278.388428 
	C872.014771,293.455170 872.014771,308.664734 872.014771,323.874268 
	C871.401611,324.002655 870.788452,324.131042 870.175354,324.259430 
	C869.783569,322.998688 869.064636,321.741150 869.052185,320.476654 
	C868.957275,310.821259 869.000000,301.164459 869.000000,291.009735 
z"/>
<path fill="#212529" opacity="1.000000" stroke="none" 
	d="
M788.384888,323.873932 
	C787.049683,320.970490 785.278992,318.369720 785.141174,315.685181 
	C784.742371,307.914886 785.000000,300.110962 785.000000,292.847870 
	C782.640381,291.987915 780.835999,291.330322 779.031616,290.672729 
	C780.714966,289.847595 782.398315,289.022491 784.575623,287.955292 
	C784.947449,285.581635 785.471558,282.236115 785.995605,278.890625 
	C786.595154,278.978485 787.194641,279.066345 787.794189,279.154205 
	C787.794189,282.224854 787.794189,285.295502 787.794189,288.010559 
	C790.637329,290.641754 795.302124,286.661285 797.604675,291.818451 
	C794.123352,291.818451 791.358826,291.818451 788.012878,291.818451 
	C788.012878,300.622650 787.764648,309.067017 788.112610,317.486786 
	C788.300293,322.027985 790.790649,322.886932 796.432617,321.132019 
	C796.523438,325.032074 794.344910,325.878540 788.384888,323.873932 
z"/>
<path fill="#F92F60" opacity="1.000000" stroke="none" 
	d="
M1266.969727,290.376648 
	C1267.688110,289.895966 1268.246460,289.725464 1268.940674,289.287659 
	C1274.801514,288.875000 1276.837036,293.473480 1278.724854,297.408722 
	C1279.427856,298.874115 1277.666992,301.823578 1276.497681,303.778046 
	C1275.726685,305.066895 1274.006348,305.787872 1272.386841,306.865173 
	C1269.052612,302.740662 1266.042603,298.514130 1262.913574,294.120544 
	C1264.220947,292.968292 1265.515381,291.827515 1266.969727,290.376648 
z"/>
<path fill="#212529" opacity="1.000000" stroke="none" 
	d="
M960.464111,383.260956 
	C961.885681,383.800903 963.517212,384.339600 963.895142,385.348083 
	C965.016418,388.340118 965.643738,391.517242 966.405640,394.400604 
	C968.880798,391.031952 966.619324,384.949066 971.366760,382.629883 
	C971.886780,382.880066 972.406799,383.130219 972.926819,383.380402 
	C971.423401,388.188934 969.919983,392.997437 968.320435,398.113403 
	C961.119324,397.786133 964.571533,390.620117 961.377441,387.841492 
	C958.431702,390.408997 962.028809,397.864288 954.735352,398.125824 
	C953.165466,393.231750 951.654907,388.522766 950.145142,383.816010 
	C953.995361,382.792969 954.728882,383.942963 956.477905,394.762939 
	C957.914429,390.287354 959.007812,386.880859 960.464111,383.260956 
z"/>
<path fill="#212529" opacity="1.000000" stroke="none" 
	d="
M1053.909912,386.000549 
	C1056.257568,382.270447 1059.921387,381.783783 1062.375610,384.876007 
	C1064.732422,387.845520 1064.733398,393.263336 1061.896729,396.187775 
	C1059.290527,398.874725 1056.146484,398.775787 1053.385620,396.324615 
	C1051.760620,399.105682 1055.100586,403.190247 1050.298584,405.658539 
	C1050.298584,397.686066 1050.298584,390.467804 1050.298584,383.249512 
	C1050.623779,383.049408 1050.948975,382.849304 1051.274048,382.649200 
	C1051.926392,383.662231 1052.578735,384.675293 1053.927856,386.128296 
	C1054.084351,387.712006 1052.876465,389.054138 1053.144897,389.957550 
	C1053.678833,391.754578 1054.688721,394.027863 1056.153564,394.714630 
	C1057.139038,395.176666 1060.261841,393.536469 1060.595825,392.329590 
	C1061.045044,390.706787 1060.228149,388.114868 1059.009644,386.846924 
	C1058.052612,385.850983 1055.663086,386.231506 1053.909912,386.000549 
z"/>
<path fill="#212529" opacity="1.000000" stroke="none" 
	d="
M813.862427,390.647583 
	C816.665527,389.791779 819.190857,389.235260 822.448242,388.517395 
	C819.816833,384.252716 816.443481,386.543091 812.903320,386.910583 
	C813.440369,382.582031 816.478333,382.932678 819.191040,383.020264 
	C824.842224,383.202637 825.594666,385.210602 824.802979,397.107513 
	C822.124573,397.411865 819.528503,398.030151 816.978577,397.877777 
	C815.397461,397.783264 813.182495,396.885040 812.551697,395.671783 
	C811.980286,394.572998 813.170959,392.557922 813.862427,390.647583 
z"/>
<path fill="#212529" opacity="1.000000" stroke="none" 
	d="
M1024.214233,385.958496 
	C1026.772827,386.550751 1028.870117,387.108704 1030.967529,387.666687 
	C1028.925049,388.113220 1026.883423,388.563446 1024.839478,389.003357 
	C1024.376343,389.103027 1023.905457,389.166901 1023.226685,389.283630 
	C1023.226685,391.084015 1023.226685,392.819580 1023.226685,395.002747 
	C1025.461670,395.002747 1027.596069,394.848633 1029.687500,395.080475 
	C1030.496460,395.170166 1031.208496,396.134613 1031.964600,396.700531 
	C1031.242798,397.132660 1030.536255,397.904541 1029.796509,397.937775 
	C1026.684082,398.077637 1023.561646,397.996918 1020.224487,397.996918 
	C1020.224487,390.895325 1020.224487,384.170105 1020.224487,377.006287 
	C1023.651062,377.006287 1026.935059,376.920258 1030.206665,377.083099 
	C1030.817749,377.113525 1031.379272,378.141541 1031.963623,378.709167 
	C1031.403320,379.136688 1030.863770,379.896210 1030.278931,379.933075 
	C1027.997925,380.076843 1025.702515,379.991760 1022.707947,379.991760 
	C1023.111694,382.283600 1023.432373,384.103912 1024.214233,385.958496 
z"/>
<path fill="#212529" opacity="1.000000" stroke="none" 
	d="
M1078.614136,394.140747 
	C1077.697510,387.734711 1079.674805,383.986389 1084.034424,383.026764 
	C1088.399414,382.065918 1091.546997,385.020050 1091.905396,390.859253 
	C1088.355957,390.859253 1084.811768,390.859253 1080.753906,390.859253 
	C1082.942139,396.654358 1087.002808,394.784454 1092.088013,394.601532 
	C1090.235718,396.155579 1089.212646,397.745667 1088.086304,397.822510 
	C1084.643921,398.057434 1080.670776,398.993835 1078.614136,394.140747 
z"/>
<path fill="#212529" opacity="1.000000" stroke="none" 
	d="
M925.129883,397.392792 
	C921.217834,398.227936 917.098877,398.967712 915.231262,395.110809 
	C914.138306,392.853760 914.289856,389.365082 915.199097,386.920563 
	C916.447327,383.564758 919.854614,382.212494 923.351135,383.228668 
	C926.823303,384.237762 928.553711,386.833588 927.769104,390.953674 
	C924.237549,390.953674 920.786560,390.953674 916.746216,390.953674 
	C918.932861,396.579132 922.907959,394.853607 927.438171,394.522980 
	C926.600830,395.597595 926.015381,396.349030 925.129883,397.392792 
z"/>
<path fill="#212529" opacity="1.000000" stroke="none" 
	d="
M847.901001,394.385834 
	C850.692627,394.698883 853.199280,394.698883 856.221680,394.698883 
	C854.859253,399.093597 851.207275,398.099426 848.419861,397.886383 
	C844.496704,397.586639 842.334717,393.882385 843.009644,389.542816 
	C843.600891,385.741486 847.171631,382.782501 850.902405,383.002106 
	C855.058105,383.246674 856.850464,385.618317 856.679199,390.953705 
	C853.242981,390.953705 849.791870,390.953705 845.534729,390.953705 
	C846.485657,392.378876 847.050781,393.225830 847.901001,394.385834 
z"/>
<path fill="#212529" opacity="1.000000" stroke="none" 
	d="
M841.291199,395.789001 
	C841.890198,396.404175 842.225586,396.770721 842.559326,397.138702 
	C839.929871,398.000275 839.929871,398.000275 832.391052,391.472351 
	C832.016052,393.634369 831.677002,395.789429 831.193237,397.911469 
	C831.162170,398.047882 830.012085,397.929230 829.002686,397.929230 
	C829.002686,390.907440 828.948730,384.100708 829.077759,377.297516 
	C829.092224,376.534119 830.142395,375.790344 830.712219,375.037537 
	C831.140442,375.766418 831.913574,376.483643 831.938599,377.226074 
	C832.065125,380.975647 831.996826,384.731781 831.996826,388.610077 
	C835.984558,387.646515 836.359070,381.201416 842.325562,383.594482 
	C839.808350,385.433502 837.540894,387.090118 835.273438,388.746735 
	C835.056885,389.498291 834.840332,390.249847 834.623779,391.001404 
	C836.758423,392.514404 838.893005,394.027405 841.291199,395.789001 
z"/>
<path fill="#212529" opacity="1.000000" stroke="none" 
	d="
M994.000183,394.742554 
	C994.000122,388.790741 993.922241,383.311035 994.074402,377.837738 
	C994.100830,376.888916 995.100220,375.967102 995.650085,375.032806 
	C996.099792,375.905579 996.863647,376.752655 996.937683,377.656219 
	C997.124084,379.933228 996.999390,382.235687 996.999390,384.607666 
	C1005.051086,381.656769 1006.998657,383.067444 1006.999878,391.609161 
	C1007.000183,393.579529 1007.000000,395.549896 1007.000000,398.828217 
	C1005.495361,397.610199 1004.294312,397.124054 1004.114624,396.388458 
	C1003.770020,394.977570 1004.032471,393.424347 1003.993896,391.931458 
	C1003.928955,389.419189 1004.499023,386.152954 1000.777283,386.119812 
	C997.326172,386.089111 996.810364,388.914764 996.988342,391.810516 
	C997.059448,392.968018 997.165955,394.165924 996.948059,395.285461 
	C996.765686,396.223145 996.134644,397.073578 995.702271,397.962585 
	C995.135010,397.047333 994.567688,396.132080 994.000183,394.742554 
z"/>
<path fill="#212529" opacity="1.000000" stroke="none" 
	d="
M899.031372,386.159973 
	C901.123779,390.768372 900.288452,394.723175 896.288513,396.641449 
	C894.036682,397.721405 890.247314,397.377777 887.939758,396.168945 
	C883.802429,394.001587 884.008362,389.864044 886.355042,386.389038 
	C888.708679,382.903748 892.272705,381.854187 896.279663,383.791656 
	C897.260742,384.266022 898.072998,385.089447 899.031372,386.159973 
M894.132141,386.036865 
	C891.308350,385.733490 888.446716,386.070007 888.183960,389.417267 
	C888.048767,391.139099 889.245300,393.907928 890.611023,394.541321 
	C891.990417,395.181183 894.954834,394.354004 896.100586,393.123047 
	C898.194580,390.873199 897.230286,388.291199 894.132141,386.036865 
z"/>
<path fill="#212529" opacity="1.000000" stroke="none" 
	d="
M1043.307861,396.800323 
	C1042.208008,395.168274 1041.382935,393.788147 1040.883545,392.952911 
	C1038.820801,394.834869 1036.607544,396.854034 1034.394409,398.873230 
	C1033.838623,398.493195 1033.282837,398.113159 1032.727051,397.733093 
	C1037.813477,393.290649 1039.055420,388.648163 1033.395996,383.827942 
	C1037.460449,383.020782 1037.460449,383.020782 1040.548096,388.718811 
	C1043.266724,387.417877 1042.147217,381.472626 1047.934448,383.456757 
	C1042.785645,388.108368 1042.329956,392.984802 1047.532104,398.211700 
	C1046.215576,397.825226 1044.899170,397.438751 1043.307861,396.800323 
z"/>
<path fill="#212529" opacity="1.000000" stroke="none" 
	d="
M880.998901,388.431519 
	C880.998779,391.200958 881.102661,393.528259 880.935547,395.835907 
	C880.882141,396.573151 880.110596,397.258392 879.667603,397.967407 
	C879.112610,397.204315 878.190857,396.491486 878.078003,395.667816 
	C877.832886,393.878693 878.361450,391.933289 877.893433,390.239777 
	C877.467834,388.699463 876.142761,387.407745 875.214233,386.006470 
	C873.809937,387.459534 871.932495,388.697327 871.144104,390.430511 
	C870.456909,391.941254 871.124268,394.023956 870.936096,395.827057 
	C870.857910,396.575897 870.111572,397.255035 869.669128,397.965851 
	C869.113586,397.205963 868.108093,396.463562 868.077820,395.683258 
	C867.917419,391.559174 868.002502,387.425568 868.002502,383.895813 
	C870.800049,383.570160 873.224915,383.134430 875.662781,383.041656 
	C878.960205,382.916229 880.688477,384.747192 880.998901,388.431519 
z"/>
<path fill="#212529" opacity="1.000000" stroke="none" 
	d="
M950.000000,302.011902 
	C950.000549,298.182648 949.879333,294.843811 950.077087,291.523987 
	C950.135132,290.549286 951.097900,289.628448 952.472046,289.144318 
	C952.472046,300.709412 952.474182,312.274506 952.392578,323.839050 
	C952.392273,323.883789 951.186768,323.920074 950.000000,323.994415 
	C950.000000,316.747162 950.000000,309.628357 950.000000,302.011902 
z"/>
<path fill="#212529" opacity="1.000000" stroke="none" 
	d="
M804.029541,396.633942 
	C804.004944,390.874084 804.004944,385.583282 804.004944,380.566711 
	C801.567017,379.981537 799.637390,379.518372 797.707764,379.055206 
	C797.834045,378.476135 797.960327,377.897064 798.086548,377.317993 
	C802.972046,377.317993 807.857544,377.317993 812.742981,377.317993 
	C812.912659,377.797516 813.082275,378.277039 813.251892,378.756561 
	C811.462524,379.349335 809.673157,379.942139 806.998840,380.828125 
	C806.998840,385.177429 806.973511,390.277527 807.010071,395.377167 
	C807.027222,397.768555 806.460449,398.958801 804.029541,396.633942 
z"/>
<path fill="#212529" opacity="1.000000" stroke="none" 
	d="
M1102.107544,397.409851 
	C1098.907837,397.646667 1095.220703,399.741486 1093.604126,394.649536 
	C1096.632324,394.649536 1099.224121,394.649536 1101.816040,394.649536 
	C1101.968872,394.314056 1102.121704,393.978607 1102.274536,393.643127 
	C1100.309448,392.680389 1098.033203,392.060242 1096.477173,390.647095 
	C1095.219604,389.505188 1094.829834,387.407593 1094.055176,385.733948 
	C1096.194214,384.822784 1098.271240,383.505707 1100.497559,383.165161 
	C1101.679810,382.984283 1103.121094,384.496918 1104.445557,385.245117 
	C1104.217407,385.601074 1103.989136,385.957062 1103.760986,386.313019 
	C1101.594849,386.203705 1099.428589,386.094360 1097.262329,385.985046 
	C1097.091431,386.390503 1096.920532,386.795959 1096.749634,387.201416 
	C1098.503052,388.135986 1100.269531,389.046967 1102.007202,390.009888 
	C1105.940552,392.189606 1106.064087,394.551636 1102.107544,397.409851 
z"/>
<path fill="#212529" opacity="1.000000" stroke="none" 
	d="
M1111.123047,394.999939 
	C1112.637085,394.919495 1113.737671,394.838989 1114.838257,394.758484 
	C1114.982300,394.387146 1115.126343,394.015808 1115.270386,393.644440 
	C1113.297363,392.675140 1111.011108,392.049774 1109.450317,390.627991 
	C1108.197632,389.486786 1107.824585,387.380035 1107.061157,385.701782 
	C1109.209473,384.801422 1111.297729,383.497253 1113.530518,383.165619 
	C1114.702759,382.991486 1116.128052,384.520538 1117.439087,385.280487 
	C1117.206299,385.619415 1116.973633,385.958374 1116.740845,386.297333 
	C1114.570801,386.194885 1112.400757,386.092468 1110.230713,385.990021 
	C1110.067749,386.377411 1109.904785,386.764832 1109.741821,387.152222 
	C1111.344727,388.081207 1113.157349,388.780792 1114.492920,390.002045 
	C1115.894653,391.283905 1116.839111,393.065643 1117.983521,394.628876 
	C1115.877563,395.752563 1113.870728,397.387146 1111.631104,397.820984 
	C1110.128784,398.111969 1108.296631,396.700806 1106.611938,396.051239 
	C1106.795288,395.588684 1106.978638,395.126129 1107.161865,394.663574 
	C1108.344482,394.775665 1109.526978,394.887756 1111.123047,394.999939 
z"/>
<path fill="#212529" opacity="1.000000" stroke="none" 
	d="
M935.149963,386.001953 
	C934.353821,386.690460 933.964294,387.377380 933.574707,388.064301 
	C934.869995,388.674255 936.402527,389.028290 937.403503,389.955902 
	C938.806274,391.255859 939.813416,392.982666 940.989868,394.526855 
	C939.080811,395.684509 937.294434,397.377777 935.228577,397.851013 
	C933.108704,398.336578 929.923828,398.903992 930.040283,394.685791 
	C932.667542,394.685791 935.255920,394.685791 937.844360,394.685791 
	C937.984253,394.325989 938.124207,393.966187 938.264160,393.606384 
	C936.270081,392.634552 933.955261,392.013885 932.384460,390.578735 
	C931.148865,389.449921 930.831482,387.316040 930.106262,385.628601 
	C932.435425,384.753265 934.712280,383.545685 937.119568,383.166687 
	C938.077881,383.015839 939.324829,384.698334 939.672791,386.461945 
	C938.300720,386.308075 936.928589,386.154236 935.149963,386.001953 
z"/>
<path fill="#212529" opacity="1.000000" stroke="none" 
	d="
M984.578369,396.054626 
	C984.171997,393.619598 984.083313,391.479492 984.001221,389.339172 
	C983.969543,388.514587 984.197876,387.580444 983.887573,386.883270 
	C982.498962,383.763763 982.812622,382.404419 985.609131,379.501770 
	C987.086487,380.717773 988.546387,381.832153 989.890930,383.071716 
	C990.385681,383.527832 990.607849,384.279541 990.954346,384.896423 
	C989.768188,385.462433 988.581970,386.028412 987.034363,386.766876 
	C987.813660,389.659821 984.616821,394.252258 990.659363,395.405579 
	C990.354004,396.261078 989.873352,397.881531 989.769409,397.857727 
	C988.117371,397.479340 986.513611,396.890350 984.578369,396.054626 
z"/>
<path fill="#212529" opacity="1.000000" stroke="none" 
	d="
M905.241699,380.425720 
	C906.227173,379.901978 907.014832,379.739868 907.802490,379.577820 
	C907.890747,381.629303 908.008728,383.605621 911.003052,383.139618 
	C911.217529,383.106201 911.628113,384.332642 911.947510,384.973328 
	C910.728516,385.496521 909.509521,386.019714 908.224060,386.571411 
	C907.475525,390.806946 907.101501,394.963623 914.142822,396.922455 
	C906.246948,398.541199 905.203552,397.629486 904.933899,392.089355 
	C904.819458,389.737732 906.626465,386.313751 902.280701,385.585724 
	C902.610718,384.729828 902.843811,383.817841 903.297729,383.033630 
	C903.768372,382.220398 904.452820,381.530945 905.241699,380.425720 
z"/>
<path fill="#212529" opacity="1.000000" stroke="none" 
	d="
M1071.000000,392.194366 
	C1071.000000,393.467499 1071.199463,394.360687 1070.951172,395.104401 
	C1070.611816,396.120789 1069.931763,397.023468 1069.397827,397.974915 
	C1068.932007,396.958771 1068.106323,395.957336 1068.064209,394.923889 
	C1067.904907,391.019958 1068.000122,387.105652 1068.000122,383.851288 
	C1070.658447,383.519623 1072.722900,383.136169 1074.797119,383.072632 
	C1075.508789,383.050873 1076.244873,383.829468 1076.969849,384.242432 
	C1076.414185,384.827087 1075.895508,385.873383 1075.296997,385.921234 
	C1071.517822,386.223511 1070.785156,388.596771 1071.000000,392.194366 
z"/>
<path fill="#212529" opacity="1.000000" stroke="none" 
	d="
M975.002686,385.297485 
	C975.548218,384.229004 976.091370,383.630676 976.634521,383.032349 
	C977.084167,383.559937 977.908508,384.076996 977.923584,384.616760 
	C978.033875,388.555756 978.033325,392.500763 977.918762,396.439575 
	C977.903564,396.963440 977.049072,397.462921 976.583313,397.973694 
	C976.057129,397.354553 975.104248,396.754242 975.075928,396.113068 
	C974.923828,392.670166 975.001831,389.217133 975.002686,385.297485 
z"/>
<path fill="#B2955F" opacity="1.000000" stroke="none" 
	d="
M85.101654,52.988407 
	C81.317017,52.319302 80.212135,49.775734 81.278755,47.110573 
	C81.858688,45.661499 84.467720,44.245594 86.144157,44.265667 
	C87.438171,44.281166 89.474503,46.375233 89.822998,47.863174 
	C90.535217,50.903988 88.885323,52.904785 85.101654,52.988407 
z"/>
<path fill="#B2955F" opacity="1.000000" stroke="none" 
	d="
M120.462059,52.949554 
	C118.013741,50.546032 116.833237,48.073967 119.420853,44.931953 
	C122.936089,43.098072 125.256622,44.266655 125.879860,47.591335 
	C126.553574,51.185307 124.671661,53.177326 120.462059,52.949554 
z"/>
<path fill="#B2955F" opacity="1.000000" stroke="none" 
	d="
M151.096100,52.594566 
	C147.799927,53.278519 145.281509,52.595589 145.040390,48.891659 
	C144.811569,45.376438 146.719955,43.837646 150.538147,44.050369 
	C153.214417,46.724777 154.324570,49.414028 151.096100,52.594566 
z"/>
<path fill="#212529" opacity="1.000000" stroke="none" 
	d="
M967.608643,483.948303 
	C965.833923,482.669983 964.434326,481.361694 963.034790,480.053406 
	C965.386719,478.256042 967.738708,476.458679 970.984192,473.978424 
	C968.623047,473.844635 966.467041,473.722443 964.311035,473.600250 
	C964.125244,473.380646 963.939514,473.161041 963.753723,472.941437 
	C965.527893,472.301880 967.428162,470.948425 969.039124,471.232941 
	C970.511414,471.493011 972.459473,473.345245 972.795532,474.816254 
	C973.403748,477.478027 972.967834,480.378326 972.967834,482.912994 
	C971.152222,483.279205 969.567993,483.598755 967.608643,483.948303 
z"/>
<path fill="#212529" opacity="1.000000" stroke="none" 
	d="
M925.794800,477.009644 
	C922.941956,477.733643 920.210205,478.061920 917.204895,478.423065 
	C918.273071,482.818329 921.507874,482.048950 924.546936,481.690826 
	C924.633728,482.130035 924.720581,482.569244 924.807373,483.008453 
	C922.768311,483.267120 920.483521,484.233246 918.744019,483.629120 
	C915.648071,482.553894 913.919861,479.547546 915.229614,476.475037 
	C916.158508,474.295898 918.463867,471.729340 920.583679,471.256012 
	C923.922791,470.510345 925.973206,472.964355 925.794800,477.009644 
z"/>
<path fill="#212529" opacity="1.000000" stroke="none" 
	d="
M999.721069,483.992035 
	C993.714294,483.214020 991.580261,479.641510 993.671692,474.726471 
	C994.868469,471.913788 996.778625,470.362091 999.840698,471.127838 
	C1003.019348,471.922760 1004.436768,474.066040 1003.654480,477.722321 
	C1000.938293,477.896576 998.197571,478.072418 995.147705,478.268097 
	C996.284851,482.841156 999.559326,482.001526 1002.929871,482.499817 
	C1001.989075,482.995392 1001.048340,483.490936 999.721069,483.992035 
z"/>
<path fill="#212529" opacity="1.000000" stroke="none" 
	d="
M945.289673,471.482483 
	C947.302185,472.891479 949.435608,473.658356 950.917542,475.096497 
	C952.269165,476.408264 953.920288,478.673859 953.598389,480.105011 
	C953.251831,481.645813 950.937073,483.288269 949.163086,483.814240 
	C947.304688,484.365234 945.068787,483.642609 942.997864,483.476685 
	C943.065002,482.979675 943.132202,482.482697 943.199341,481.985718 
	C945.091248,481.985718 947.024353,482.219635 948.859558,481.897095 
	C949.943604,481.706543 951.517822,480.765930 951.688660,479.922913 
	C951.856567,479.094299 950.678772,477.798065 949.814575,477.011200 
	C948.988831,476.259430 947.514099,476.138794 946.841431,475.317474 
	C945.433228,473.597992 944.364929,471.600159 943.157043,469.716675 
	C945.239319,468.478088 947.229492,467.015320 949.446655,466.105316 
	C950.404175,465.712372 951.830566,466.461884 954.059570,466.885284 
	C950.642212,469.569122 945.560059,465.280640 945.289673,471.482483 
z"/>
<path fill="#212529" opacity="1.000000" stroke="none" 
	d="
M900.201782,472.664612 
	C901.023987,475.681274 901.385193,478.853912 903.133850,480.740967 
	C904.108337,481.792603 907.391357,480.705170 909.634033,480.581726 
	C908.842163,478.943207 908.050232,477.304718 907.075623,475.288086 
	C907.983215,475.224915 909.617798,475.111145 912.964905,474.878174 
	C911.729187,478.347717 911.544250,482.155060 909.709900,483.285370 
	C906.563904,485.223846 902.595581,484.376526 899.837097,481.256256 
	C897.140137,478.205688 897.342712,473.800842 900.633301,469.663208 
	C900.481567,470.934601 900.401123,471.608948 900.201782,472.664612 
z"/>
<path fill="#212529" opacity="1.000000" stroke="none" 
	d="
M991.661133,472.139221 
	C987.857239,474.811768 987.862183,480.209839 991.620239,482.879120 
	C988.115723,484.248962 987.378052,483.893188 987.017883,480.630554 
	C986.963684,480.139160 986.939148,479.627838 987.010254,479.141754 
	C987.653381,474.746857 986.736572,471.666779 980.058105,472.906952 
	C983.636169,471.087402 986.001221,469.884705 988.683105,468.520905 
	C989.230469,469.107056 990.471008,470.435547 991.661133,472.139221 
z"/>
<path fill="#212529" opacity="1.000000" stroke="none" 
	d="
M929.342285,473.263916 
	C929.545654,471.166168 930.075439,469.292664 930.692688,467.109863 
	C932.289001,469.230560 933.406006,470.714539 934.521606,472.196625 
	C930.908508,474.712555 930.889465,480.216339 934.623657,483.033936 
	C930.882812,484.139984 930.290894,483.832367 930.020874,480.437683 
	C929.836975,478.126465 929.781555,475.805054 929.342285,473.263916 
z"/>
<path fill="#212529" opacity="1.000000" stroke="none" 
	d="
M961.327026,482.350525 
	C960.188232,482.522614 958.731750,482.462158 957.275269,482.401672 
	C957.864075,477.531250 954.384155,472.435913 957.914001,467.522522 
	C959.165405,469.154205 960.267395,470.591095 961.424683,472.100098 
	C958.155823,474.592529 957.843384,479.307617 961.327026,482.350525 
z"/>
<path fill="#212529" opacity="1.000000" stroke="none" 
	d="
M1015.067993,482.082184 
	C1012.853394,485.064606 1010.425598,484.592102 1007.973511,482.453552 
	C1004.864136,479.741852 1005.513245,476.541199 1007.283997,473.560333 
	C1009.115295,470.477448 1011.739319,469.883850 1014.743591,472.745605 
	C1014.785400,473.218964 1014.501099,473.518494 1014.172119,473.355133 
	C1010.121887,472.532257 1007.796692,473.966522 1008.090942,477.860535 
	C1008.390442,481.823914 1010.991211,482.691498 1014.641724,481.631287 
	C1014.784485,481.780914 1015.067993,482.082184 1015.067993,482.082184 
z"/>
<path fill="#212529" opacity="1.000000" stroke="none" 
	d="
M1014.926392,473.068054 
	C1015.588867,470.390137 1016.110474,467.863159 1016.632080,465.336182 
	C1017.059387,465.353912 1017.486694,465.371674 1017.914001,465.389404 
	C1017.914001,471.167114 1017.914001,476.944794 1017.914001,482.722504 
	C1017.175293,482.618134 1016.436646,482.513794 1015.382935,482.245789 
	C1015.067993,482.082184 1014.784485,481.780914 1014.840088,481.339661 
	C1014.764221,478.438446 1014.632690,475.978485 1014.501099,473.518494 
	C1014.501099,473.518494 1014.785400,473.218964 1014.926392,473.068054 
z"/>
<path fill="#212529" opacity="1.000000" stroke="none" 
	d="
M977.000000,477.086975 
	C977.000000,474.910095 977.000000,473.181274 977.000000,471.452484 
	C977.597900,471.456818 978.195801,471.461182 978.793701,471.465515 
	C978.793701,475.502960 978.793701,479.540436 978.793701,483.577881 
	C978.351196,483.620026 977.908752,483.662140 977.466248,483.704285 
	C977.310852,481.647858 977.155457,479.591431 977.000000,477.086975 
z"/>
<path fill="#212529" opacity="1.000000" stroke="none" 
	d="
M906.223145,468.010529 
	C904.642944,468.237244 903.461243,468.456635 902.279541,468.676025 
	C905.233765,465.354340 908.389648,465.164551 912.984802,468.003174 
	C910.004211,468.003174 908.312866,468.003174 906.223145,468.010529 
z"/>
<path fill="#FF8D38" opacity="1.000000" stroke="none" 
	d="
M1268.117432,309.479797 
	C1267.814331,310.044312 1267.492554,310.262726 1267.042847,310.746033 
	C1259.953125,316.163361 1252.896851,321.194366 1246.064087,326.512299 
	C1241.770386,329.854004 1236.975830,328.589386 1232.340210,328.463959 
	C1231.752808,328.448059 1230.598633,325.655060 1230.798096,324.310486 
	C1231.750977,317.885406 1234.630615,312.661346 1240.987915,309.934570 
	C1241.997925,309.501404 1242.770264,308.514526 1244.113525,307.376007 
	C1246.073608,305.994904 1247.572876,305.021454 1249.072144,304.047974 
	C1250.936890,302.621613 1252.801636,301.195221 1255.104248,299.371399 
	C1256.385742,298.331970 1257.229370,297.689941 1258.072876,297.047913 
	C1259.593384,298.664978 1261.208130,300.204803 1262.611450,301.917908 
	C1264.524902,304.254028 1266.277344,306.722198 1268.117432,309.479797 
z"/>
<path fill="#B4ACBC" opacity="1.000000" stroke="none" 
	d="
M1258.263672,290.320618 
	C1258.450806,290.975525 1258.279175,291.739410 1258.103638,291.740326 
	C1247.205444,291.796967 1236.307007,291.791229 1225.408569,291.791229 
	C1225.392578,291.218689 1225.376465,290.646118 1225.360352,290.073578 
	C1236.208008,290.073578 1247.055542,290.073578 1258.263672,290.320618 
z"/>
<path fill="#B4ACBC" opacity="1.000000" stroke="none" 
	d="
M1248.600098,303.998779 
	C1247.572876,305.021454 1246.073608,305.994904 1244.239136,307.069550 
	C1237.720215,307.170715 1231.536377,307.170715 1225.352661,307.170715 
	C1225.316406,306.467194 1225.280151,305.763641 1225.243774,305.060120 
	C1232.649048,302.547089 1240.523071,304.542633 1248.600098,303.998779 
z"/>
<path fill="#B4ACBC" opacity="1.000000" stroke="none" 
	d="
M1257.600586,296.998779 
	C1257.229370,297.689941 1256.385742,298.331970 1255.223145,299.072388 
	C1245.065796,299.170837 1235.227539,299.170837 1225.389282,299.170837 
	C1225.383789,298.430420 1225.378296,297.690033 1225.372681,296.949615 
	C1235.958008,296.949615 1246.543213,296.949615 1257.600586,296.998779 
z"/>
<path fill="#F8F9FA" opacity="1.000000" stroke="none" 
	d="
M1023.995056,314.597229 
	C1019.116943,321.865112 1014.138550,323.846527 1008.539917,321.155609 
	C1002.391296,318.200348 999.189514,309.529175 1001.472290,302.015198 
	C1004.401001,292.375153 1010.305237,288.612610 1018.308960,292.200897 
	C1021.029785,293.420715 1024.048096,296.755798 1024.540161,299.545837 
	C1025.369263,304.247650 1024.289917,309.286041 1023.995056,314.597229 
z"/>
<path fill="#F8F9FA" opacity="1.000000" stroke="none" 
	d="
M644.701416,288.717712 
	C645.842163,285.912720 646.736084,283.426941 647.985901,279.951538 
	C651.311707,289.122192 654.272339,297.285889 657.361755,305.804749 
	C651.023376,305.804749 645.255676,305.804749 638.824768,305.804749 
	C640.749878,300.071045 642.602234,294.553955 644.701416,288.717712 
z"/>
<path fill="#F8F9FA" opacity="1.000000" stroke="none" 
	d="
M1066.632080,302.838806 
	C1069.451660,295.337585 1071.982544,288.143127 1074.872070,279.928864 
	C1076.834595,285.028503 1078.474609,289.094116 1079.963257,293.214478 
	C1081.423584,297.255829 1082.729736,301.352814 1084.296509,305.997711 
	C1078.560913,305.997711 1073.300659,306.090149 1068.053101,305.872192 
	C1067.446533,305.846985 1066.911621,304.096252 1066.632080,302.838806 
z"/>
<path fill="#F8F9FA" opacity="1.000000" stroke="none" 
	d="
M1122.743530,291.931519 
	C1130.450928,294.536987 1131.385986,306.919250 1128.428833,314.272095 
	C1125.828735,320.736969 1119.514771,322.658997 1115.273682,321.958221 
	C1110.807739,321.220276 1106.100952,314.858398 1106.006958,309.603394 
	C1105.913574,304.383179 1105.587524,299.101685 1109.609985,294.868958 
	C1113.210083,291.080719 1117.399048,289.895081 1122.743530,291.931519 
z"/>
<path fill="#F8F9FA" opacity="1.000000" stroke="none" 
	d="
M1154.476562,321.988892 
	C1144.959961,317.317719 1141.549438,304.425018 1147.379272,296.160248 
	C1150.246582,292.095459 1154.454224,290.240723 1159.322754,291.093292 
	C1163.656006,291.852142 1166.632446,294.496582 1168.090576,298.954102 
	C1171.078003,308.087158 1167.917358,317.951538 1160.541260,321.040039 
	C1158.822998,321.759491 1156.778320,321.699432 1154.476562,321.988892 
z"/>
<path fill="#F8F9FA" opacity="1.000000" stroke="none" 
	d="
M809.841003,293.651917 
	C819.714050,287.886505 827.287109,292.177155 827.879822,303.711151 
	C820.347839,303.711151 812.824097,303.711151 803.931458,303.711151 
	C806.040344,300.065338 807.810242,297.005463 809.841003,293.651917 
z"/>
<path fill="#F8F9FA" opacity="1.000000" stroke="none" 
	d="
M896.330933,321.878998 
	C892.191406,322.282806 888.360352,322.137451 886.280396,318.569275 
	C885.267822,316.832214 884.677002,313.725891 885.570740,312.263153 
	C886.928162,310.041473 889.506470,307.971344 891.995056,307.171570 
	C895.949524,305.900726 900.257568,305.730499 904.416016,305.094299 
	C905.902283,312.750488 903.651001,317.635742 896.330933,321.878998 
z"/>
<path fill="#F8F9FA" opacity="1.000000" stroke="none" 
	d="
M745.000061,307.809784 
	C744.793762,296.419434 751.005249,290.598236 759.724670,290.979614 
	C765.563477,291.234985 769.344788,294.346924 771.384888,300.875610 
	C773.616699,308.017761 771.205139,316.935913 766.224182,319.960510 
	C756.675720,325.758698 747.286560,320.577179 745.000061,307.809784 
z"/>
<path fill="#F8F9FA" opacity="1.000000" stroke="none" 
	d="
M1053.943726,385.987610 
	C1055.663086,386.231506 1058.052612,385.850983 1059.009644,386.846924 
	C1060.228149,388.114868 1061.045044,390.706787 1060.595825,392.329590 
	C1060.261841,393.536469 1057.139038,395.176666 1056.153564,394.714630 
	C1054.688721,394.027863 1053.678833,391.754578 1053.144897,389.957550 
	C1052.876465,389.054138 1054.084351,387.712006 1054.313965,386.237640 
	C1054.003174,385.907043 1053.977539,385.974670 1053.943726,385.987610 
z"/>
<path fill="#F8F9FA" opacity="1.000000" stroke="none" 
	d="
M894.507324,386.204285 
	C897.230286,388.291199 898.194580,390.873199 896.100586,393.123047 
	C894.954834,394.354004 891.990417,395.181183 890.611023,394.541321 
	C889.245300,393.907928 888.048767,391.139099 888.183960,389.417267 
	C888.446716,386.070007 891.308350,385.733490 894.507324,386.204285 
z"/>
<path fill="#A2732A" opacity="1.000000" stroke="none" 
	d="
M1014.172119,473.355133 
	C1014.632690,475.978485 1014.764221,478.438446 1014.697388,481.190063 
	C1010.991211,482.691498 1008.390442,481.823914 1008.090942,477.860535 
	C1007.796692,473.966522 1010.121887,472.532257 1014.172119,473.355133 
z"/>
</svg>